<svg width="388" height="317" viewBox="0 0 388 317" fill="none" xmlns="http://www.w3.org/2000/svg">
<g clip-path="url(#clip0)">
<rect x="19" y="21" width="350.373" height="281.932" rx="15" fill="url(#paint0_linear)" fill-opacity="0.8"/>
<rect x="78.1714" y="269.576" width="39.8907" height="47.6504" rx="10" fill="#2E3456" fill-opacity="0.85"/>
<rect x="113.408" y="213.19" width="26.5938" height="31.7669" rx="10" fill="#2E3456" fill-opacity="0.85"/>
<rect x="294.578" y="41.6483" width="26.5938" height="31.7669" rx="10" fill="#2E3456" fill-opacity="0.85"/>
<rect x="344.109" y="86.1226" width="39.8907" height="47.6504" rx="10" fill="#2E3456" fill-opacity="0.85"/>
<g filter="url(#filter0_d)">
<rect x="192" y="41" width="119" height="119" rx="10" fill="#2E3456" fill-opacity="0.85" shape-rendering="crispEdges"/>
</g>
<path fill-rule="evenodd" clip-rule="evenodd" d="M270.174 76.5511H268.897C266.666 76.5511 264.756 77.5858 263.561 79.4409C263.169 80.0445 262.704 80.6194 262.169 81.1445C258.262 84.9803 251.926 84.9803 248.019 81.1445C247.476 80.6194 247.013 80.0445 246.627 79.4409C245.435 77.5858 243.516 76.5511 241.283 76.5511H240.014C237.784 76.5511 235.865 77.5858 234.67 79.4409C234.284 80.0445 233.821 80.6194 233.286 81.1445C229.371 84.9803 223.04 84.9803 219.131 81.1445C215.224 77.3088 215.224 71.0875 219.131 67.2518C223.04 63.4161 229.371 63.4161 233.286 67.2518C233.821 67.7796 234.284 68.3545 234.67 68.9606C235.865 70.8106 237.784 71.8479 240.014 71.8479H241.283C243.516 71.8479 245.435 70.8106 246.627 68.9606C247.018 68.3545 247.476 67.7796 248.019 67.2518C251.926 63.4161 258.262 63.4161 262.169 67.2518C262.704 67.7796 263.169 68.3545 263.561 68.9606C264.748 70.8106 266.666 71.8479 268.897 71.8479H270.174C272.407 71.8479 274.323 70.8106 275.512 68.9606C275.904 68.3545 276.367 67.7796 276.904 67.2518C280.816 63.4161 287.148 63.4161 291.054 67.2518C294.964 71.0875 294.964 77.3088 291.054 81.1445C287.148 84.9803 280.816 84.9803 276.904 81.1445C276.367 80.6194 275.904 80.0445 275.512 79.4409C274.323 77.5858 272.401 76.5511 270.174 76.5511ZM279.523 98.0422C281.987 95.6279 285.977 95.6279 288.436 98.0422C290.897 100.456 290.897 104.378 288.436 106.793C285.977 109.207 281.987 109.207 279.523 106.793C277.064 104.378 277.064 100.456 279.523 98.0422ZM233.286 123.69C237.19 127.526 237.19 133.747 233.286 137.58C229.371 141.419 223.04 141.419 219.131 137.58C215.224 133.747 215.224 127.526 219.131 123.69C219.666 123.163 220.251 122.708 220.869 122.324C222.753 121.156 223.815 119.275 223.815 117.077V115.977C223.815 113.785 222.753 111.904 220.869 110.73C220.251 110.346 219.671 109.889 219.131 109.364C215.224 105.528 215.224 99.3068 219.131 95.4711C223.04 91.6353 229.371 91.6353 233.286 95.4711C233.821 95.9989 234.284 96.5737 234.67 97.1747C235.865 99.0298 237.784 100.065 240.014 100.065H241.283C243.516 100.065 245.435 99.0298 246.627 97.1747C247.013 96.5737 247.476 95.9989 248.019 95.4711C251.926 91.6353 258.262 91.6353 262.169 95.4711C266.076 99.3068 266.076 105.528 262.169 109.364C258.262 113.2 251.926 113.2 248.019 109.364C247.476 108.836 247.013 108.261 246.627 107.66C245.435 105.805 243.516 104.77 241.283 104.77H240.014C237.784 104.77 235.865 105.805 234.67 107.66C234.284 108.261 233.821 108.836 233.286 109.364C232.743 109.889 232.158 110.346 231.543 110.73C229.653 111.904 228.6 113.785 228.6 115.977V117.077C228.6 119.275 229.653 121.156 231.543 122.324C232.158 122.708 232.743 123.163 233.286 123.69ZM279.523 126.261C281.987 123.847 285.977 123.847 288.438 126.261C290.897 128.681 290.897 132.598 288.438 135.012C285.977 137.429 281.987 137.429 279.523 135.012C277.064 132.598 277.064 128.681 279.523 126.261ZM250.638 126.261C253.097 123.847 257.091 123.847 259.55 126.261C262.009 128.681 262.009 132.598 259.55 135.012C257.091 137.429 253.097 137.429 250.638 135.012C248.173 132.598 248.173 128.681 250.638 126.261Z" fill="url(#paint1_linear)"/>
<g filter="url(#filter1_d)">
<rect x="0.484375" y="67.0857" width="92" height="92" rx="10" fill="#2E3456" fill-opacity="0.85" shape-rendering="crispEdges"/>
</g>
<path d="M28.6623 122.327C29.4674 122.327 30.247 122.428 30.9907 122.601C32.8258 123.047 34.6353 122.577 35.9745 121.312L37.3904 119.977C38.7322 118.717 39.2255 117.016 38.7578 115.278C38.5738 114.577 38.4715 113.842 38.4715 113.083C38.4715 112.327 38.5738 111.592 38.7578 110.893C39.2255 109.16 38.7322 107.457 37.3904 106.189L36.0691 104.948C34.7324 103.688 32.9229 103.218 31.0852 103.659C30.344 103.837 29.5646 103.929 28.7569 103.929C23.5584 103.929 19.3438 99.9556 19.3438 95.0544C19.3438 90.1532 23.5584 86.1748 28.7569 86.1748C33.9606 86.1748 38.1751 90.1532 38.1751 95.0544C38.1751 95.8086 38.0729 96.5459 37.8888 97.2447C37.4211 98.9748 37.9144 100.683 39.2562 101.948L40.5724 103.187C41.9168 104.454 43.7187 104.919 45.5614 104.478C46.3026 104.298 47.0821 104.209 47.8846 104.209C48.6922 104.209 49.4718 104.298 50.213 104.478C52.0506 104.919 53.855 104.454 55.1968 103.187L56.6127 101.852C57.9545 100.587 58.4478 98.8857 57.9801 97.1556C57.796 96.4544 57.6938 95.7146 57.6938 94.9652C57.6938 90.0567 61.9083 86.0857 67.1069 86.0857C72.3079 86.0857 76.5251 90.0567 76.5251 94.9652C76.5251 99.8664 72.3079 103.837 67.1069 103.837C66.3069 103.837 65.5274 103.743 64.7837 103.563C62.9435 103.127 61.1391 103.594 59.8024 104.859L58.3839 106.189C57.0421 107.457 56.5437 109.16 57.0114 110.893C57.2005 111.592 57.3028 112.327 57.3028 113.083C57.3028 113.842 57.2005 114.572 57.0114 115.278C56.5437 117.009 57.0421 118.717 58.3839 119.977L59.7001 121.221C61.0445 122.488 62.8463 122.953 64.6891 122.512C65.4303 122.336 66.2098 122.237 67.0123 122.237C72.2109 122.237 76.4305 126.213 76.4305 131.117C76.4305 136.023 72.2109 139.997 67.0123 139.997C61.8113 139.997 57.5941 136.023 57.5941 131.117C57.5941 130.36 57.6938 129.621 57.8855 128.919C58.3532 127.189 57.8548 125.488 56.5181 124.223L55.1968 122.977C53.8601 121.717 52.0506 121.247 50.213 121.686C49.4718 121.866 48.6922 121.963 47.8846 121.963C47.0821 121.963 46.3026 121.866 45.5563 121.686C43.7187 121.247 41.9168 121.717 40.5724 122.977L39.1565 124.319C37.8198 125.58 37.3214 127.278 37.7866 129.016C37.9783 129.715 38.0805 130.452 38.0805 131.211C38.0805 136.115 33.8609 140.086 28.6623 140.086C23.4612 140.086 19.2492 136.115 19.2492 131.211C19.2492 126.31 23.4612 122.327 28.6623 122.327Z" fill="url(#paint2_linear)"/>
<path d="M27.6575 108.673C30.1098 108.673 32.0992 110.547 32.0992 112.861C32.0992 115.171 30.1098 117.05 27.6575 117.05C25.2038 117.05 23.2157 115.171 23.2157 112.861C23.2157 110.547 25.2038 108.673 27.6575 108.673Z" fill="url(#paint3_linear)"/>
<path d="M47.3318 127.221C49.7845 127.221 51.7743 129.096 51.7743 131.41C51.7743 133.721 49.7845 135.599 47.3318 135.599C44.8778 135.599 42.8894 133.721 42.8894 131.41C42.8894 129.096 44.8778 127.221 47.3318 127.221Z" fill="url(#paint4_linear)"/>
<path d="M67.0055 108.374C69.4582 108.374 71.448 110.248 71.448 112.562C71.448 114.873 69.4582 116.752 67.0055 116.752C64.5515 116.752 62.5631 114.873 62.5631 112.562C62.5631 110.248 64.5515 108.374 67.0055 108.374Z" fill="url(#paint5_linear)"/>
<path d="M47.9665 89.227C50.4192 89.227 52.4089 91.1013 52.4089 93.4147C52.4089 95.7254 50.4192 97.6037 47.9665 97.6037C45.5124 97.6037 43.524 95.7254 43.524 93.4147C43.524 91.1013 45.5124 89.227 47.9665 89.227Z" fill="url(#paint6_linear)"/>
<rect x="82" y="8" width="118" height="118" rx="10" fill="#2E3456" fill-opacity="0.85"/>
<path fill-rule="evenodd" clip-rule="evenodd" d="M126.698 85.5751C127.151 85.999 127.542 86.4549 127.882 86.9355C129.073 88.6409 130.941 89.5872 133.118 89.5872H133.692C135.864 89.5872 137.739 88.6409 138.928 86.9355C139.268 86.4549 139.659 85.999 140.114 85.5751C143.668 82.2382 149.438 82.2382 152.994 85.5751C153.446 85.999 153.841 86.4549 154.172 86.9355C155.369 88.6409 157.236 89.5872 159.414 89.5872H159.987C162.168 89.5872 164.035 88.6409 165.224 86.9355C165.563 86.4549 165.958 85.999 166.41 85.5751C169.966 82.2382 175.737 82.2382 179.29 85.5751C182.851 88.9046 182.851 94.3141 179.29 97.6436C175.737 100.976 169.966 100.976 166.41 97.6436C165.958 97.2197 165.563 96.7638 165.224 96.2832C164.035 94.5803 162.168 93.6339 159.987 93.6339H159.414C157.236 93.6339 155.369 94.5803 154.172 96.2832C153.841 96.7638 153.446 97.2197 152.994 97.6436C149.438 100.976 143.668 100.976 140.114 97.6436C139.659 97.2197 139.268 96.7638 138.928 96.2832C137.739 94.5803 135.864 93.6339 133.692 93.6339H133.118C130.941 93.6339 129.073 94.5803 127.882 96.2832C127.542 96.7638 127.151 97.2197 126.698 97.6436C123.137 100.976 117.372 100.976 113.816 97.6436C110.257 94.3141 110.257 88.9046 113.816 85.5751C114.271 85.1512 114.755 84.7766 115.276 84.4587C117.093 83.3447 118.103 81.5949 118.103 79.5518V79.1477C118.103 77.1071 117.093 75.3573 115.276 74.236C114.755 73.9205 114.271 73.5509 113.816 73.127C110.257 69.795 110.257 64.3929 113.816 61.056C114.271 60.6321 114.755 60.2624 115.276 59.9469C117.093 58.8256 118.103 57.0758 118.103 55.0352V54.631C118.103 52.5954 117.093 50.8406 115.276 49.7242C114.755 49.4063 114.271 49.0342 113.816 48.6079C110.257 45.2784 110.257 39.8737 113.816 36.5393C117.372 33.2073 123.137 33.2073 126.698 36.5393C127.151 36.9632 127.542 37.424 127.882 37.9046C129.073 39.6149 130.946 40.5613 133.124 40.5613H133.686C135.864 40.5613 137.732 39.6149 138.923 37.9046C139.262 37.424 139.659 36.9632 140.114 36.5393C143.668 33.2073 149.438 33.2073 152.994 36.5393C153.446 36.9632 153.841 37.424 154.18 37.9046C155.369 39.6149 157.242 40.5613 159.422 40.5613H159.982C162.163 40.5613 164.03 39.6149 165.224 37.9046C165.558 37.424 165.958 36.9632 166.41 36.5393C169.966 33.2073 175.737 33.2073 179.29 36.5393C182.846 39.8737 182.846 45.2784 179.29 48.6079C175.737 51.9448 169.966 51.9448 166.41 48.6079C165.958 48.184 165.558 47.728 165.224 47.2425C164.03 45.5396 162.163 44.5908 159.982 44.5908H159.422C157.242 44.5908 155.369 45.5396 154.18 47.2425C153.841 47.728 153.446 48.184 152.994 48.6079C149.438 51.9448 143.668 51.9448 140.114 48.6079C139.659 48.184 139.262 47.728 138.923 47.2425C137.732 45.5396 135.864 44.5908 133.686 44.5908H133.124C130.946 44.5908 129.073 45.5396 127.882 47.2425C127.542 47.728 127.151 48.184 126.698 48.6079C126.243 49.0342 125.754 49.4063 125.238 49.7242C123.416 50.8406 122.406 52.5954 122.406 54.631V55.0352C122.406 57.0758 123.416 58.8256 125.238 59.9469C125.754 60.2624 126.243 60.6321 126.698 61.056C130.251 64.3929 130.251 69.795 126.698 73.127C126.243 73.5509 125.754 73.9205 125.238 74.236C123.416 75.3573 122.406 77.1071 122.406 79.1477V79.5518C122.406 81.5949 123.416 83.3447 125.238 84.4587C125.754 84.7766 126.243 85.1512 126.698 85.5751ZM168.79 63.2937C171.034 61.1964 174.666 61.1964 176.904 63.2937C179.145 65.3909 179.145 68.792 176.904 70.8966C174.666 72.9939 171.034 72.9939 168.79 70.8966C166.552 68.792 166.552 65.3909 168.79 63.2937ZM142.495 63.2937C144.738 61.1964 148.37 61.1964 150.609 63.2937C152.852 65.3909 152.852 68.792 150.609 70.8966C148.37 72.9939 144.738 72.9939 142.495 70.8966C140.256 68.792 140.256 65.3909 142.495 63.2937Z" fill="url(#paint7_linear)"/>
<path d="M343.18 94.5371C339.286 94.5371 336.113 97.8371 336.113 101.929V110H350.536V102.231C350.554 97.988 347.255 94.5371 343.18 94.5371ZM348.841 107.549H337.844V102.702C337.844 99.5531 340.296 96.9885 343.307 96.9885H343.379C346.39 96.9885 348.841 99.5531 348.841 102.702V107.549Z" fill="white"/>
<path d="M343.866 78.5651V89.012H348.95V77.3206H350.537V91.3691H336.132V77.8486H337.718V89.012H342.334V78.5651H343.866Z" fill="white"/>
<path d="M350.626 68.4389L336.221 75.68V73.172C336.221 73.172 347.146 67.496 348.859 67.1V67.2509C347.164 66.8172 336.221 61.424 336.221 61.424V58.916L350.626 65.8743V68.4389Z" fill="white"/>
<path d="M350.535 63.7434L339.538 58.8029H350.535V63.7434Z" fill="#77797A"/>
<path d="M343.469 51.5429C345.461 51.5429 347.075 49.8543 347.075 47.7714C347.075 45.6885 345.461 44 343.469 44C341.478 44 339.863 45.6885 339.863 47.7714C339.863 49.8543 341.478 51.5429 343.469 51.5429Z" fill="#77797A"/>
<path d="M388 58.8029H353.565V68.7971H388V58.8029Z" fill="#FFC612"/>
<path d="M333.192 58.8029H313V68.7971H333.192V58.8029Z" fill="#FFC612"/>
</g>
<defs>
<filter id="filter0_d" x="183" y="33" width="159" height="159" filterUnits="userSpaceOnUse" color-interpolation-filters="sRGB">
<feFlood flood-opacity="0" result="BackgroundImageFix"/>
<feColorMatrix in="SourceAlpha" type="matrix" values="0 0 0 0 0 0 0 0 0 0 0 0 0 0 0 0 0 0 127 0" result="hardAlpha"/>
<feOffset dx="11" dy="12"/>
<feGaussianBlur stdDeviation="10"/>
<feComposite in2="hardAlpha" operator="out"/>
<feColorMatrix type="matrix" values="0 0 0 0 0 0 0 0 0 0 0 0 0 0 0 0 0 0 0.1 0"/>
<feBlend mode="normal" in2="BackgroundImageFix" result="effect1_dropShadow"/>
<feBlend mode="normal" in="SourceGraphic" in2="effect1_dropShadow" result="shape"/>
</filter>
<filter id="filter1_d" x="-8.51562" y="59.0857" width="132" height="132" filterUnits="userSpaceOnUse" color-interpolation-filters="sRGB">
<feFlood flood-opacity="0" result="BackgroundImageFix"/>
<feColorMatrix in="SourceAlpha" type="matrix" values="0 0 0 0 0 0 0 0 0 0 0 0 0 0 0 0 0 0 127 0" result="hardAlpha"/>
<feOffset dx="11" dy="12"/>
<feGaussianBlur stdDeviation="10"/>
<feComposite in2="hardAlpha" operator="out"/>
<feColorMatrix type="matrix" values="0 0 0 0 0 0 0 0 0 0 0 0 0 0 0 0 0 0 0.1 0"/>
<feBlend mode="normal" in2="BackgroundImageFix" result="effect1_dropShadow"/>
<feBlend mode="normal" in="SourceGraphic" in2="effect1_dropShadow" result="shape"/>
</filter>
<linearGradient id="paint0_linear" x1="194.187" y1="21" x2="194.187" y2="302.932" gradientUnits="userSpaceOnUse">
<stop stop-color="#2C3556"/>
<stop offset="1" stop-color="#242245"/>
</linearGradient>
<linearGradient id="paint1_linear" x1="310.726" y1="124.242" x2="224.772" y2="153.909" gradientUnits="userSpaceOnUse">
<stop stop-color="#FFFF00"/>
<stop offset="1" stop-color="#33CB33"/>
</linearGradient>
<linearGradient id="paint2_linear" x1="19.2492" y1="140.086" x2="75.1341" y2="110.53" gradientUnits="userSpaceOnUse">
<stop stop-color="#12C2E9"/>
<stop offset="0.5" stop-color="#C471ED"/>
<stop offset="1" stop-color="#F64F59"/>
</linearGradient>
<linearGradient id="paint3_linear" x1="19.2492" y1="140.086" x2="75.1341" y2="110.53" gradientUnits="userSpaceOnUse">
<stop stop-color="#12C2E9"/>
<stop offset="0.5" stop-color="#C471ED"/>
<stop offset="1" stop-color="#F64F59"/>
</linearGradient>
<linearGradient id="paint4_linear" x1="19.2492" y1="140.086" x2="75.1341" y2="110.53" gradientUnits="userSpaceOnUse">
<stop stop-color="#12C2E9"/>
<stop offset="0.5" stop-color="#C471ED"/>
<stop offset="1" stop-color="#F64F59"/>
</linearGradient>
<linearGradient id="paint5_linear" x1="19.2492" y1="140.086" x2="75.1341" y2="110.53" gradientUnits="userSpaceOnUse">
<stop stop-color="#12C2E9"/>
<stop offset="0.5" stop-color="#C471ED"/>
<stop offset="1" stop-color="#F64F59"/>
</linearGradient>
<linearGradient id="paint6_linear" x1="19.2492" y1="140.086" x2="75.1341" y2="110.53" gradientUnits="userSpaceOnUse">
<stop stop-color="#12C2E9"/>
<stop offset="0.5" stop-color="#C471ED"/>
<stop offset="1" stop-color="#F64F59"/>
</linearGradient>
<linearGradient id="paint7_linear" x1="95.3199" y1="124.711" x2="173.819" y2="31.4824" gradientUnits="userSpaceOnUse">
<stop stop-color="#091E3A"/>
<stop offset="0.5" stop-color="#2F80ED"/>
<stop offset="1" stop-color="#76C8F8"/>
</linearGradient>
<clipPath id="clip0">
<rect width="388" height="317" fill="white"/>
</clipPath>
</defs>
</svg>
