<svg width="43" height="43" viewBox="0 0 43 43" fill="none" xmlns="http://www.w3.org/2000/svg">
<path d="M3.48613 8.08472C3.31771 8.29525 3.14928 8.46368 2.98085 8.67421C1.59132 9.89532 0.538641 12.5481 1.17025 15.8745C3.90721 30.1488 15.9077 41.0124 30.3925 42.3178C30.6873 42.3599 31.0241 42.3599 31.3189 42.3599C32.9611 42.3599 34.5611 41.9388 35.7822 41.1809C36.3717 40.844 36.9191 40.3808 37.3823 39.8755L38.6455 38.486C41.0877 35.7912 40.8772 31.6647 38.1823 29.2225L36.077 27.3276C34.8559 26.2329 33.2979 25.6434 31.6979 25.6434C29.8451 25.6434 28.0767 26.4434 26.8555 27.7908L25.6344 29.1804C25.1292 29.7277 24.7502 30.3172 24.4976 30.991C19.5289 28.9277 15.4866 25.1802 12.9602 20.4221C13.8866 20.0431 14.6866 19.4957 15.3603 18.7378L16.5814 17.3483C17.7604 16.0429 18.3499 14.3587 18.2657 12.6323C18.1815 10.9059 17.4236 9.26371 16.1183 8.08472L14.0129 6.1899C12.7918 5.09511 11.2338 4.50562 9.63376 4.50562C7.78105 4.50562 6.01256 5.30565 4.79145 6.65308L3.48613 8.08472ZM5.97045 7.87418C6.89681 6.86361 8.20212 6.27411 9.59166 6.27411C10.8128 6.27411 11.9497 6.73729 12.876 7.53732L14.9814 9.43214C15.9498 10.3164 16.4972 11.4954 16.5814 12.8007C16.6656 14.106 16.2025 15.3271 15.3182 16.2956L14.055 17.643C13.4655 18.3167 12.7076 18.7799 11.8654 19.0325L11.4865 19.1589C11.2338 19.2431 11.0654 19.4115 10.9391 19.622C10.8549 19.8326 10.8549 20.1273 10.9391 20.3379L11.1075 20.6747C13.8445 26.1907 18.5184 30.4857 24.2449 32.7595L24.5818 32.8858C24.7923 32.97 25.0449 32.97 25.2555 32.8858C25.466 32.8016 25.6344 32.591 25.7187 32.3805L25.845 32.0436C26.0555 31.412 26.3924 30.8225 26.8555 30.3172L28.0767 28.9277C29.003 27.9171 30.3083 27.3276 31.6979 27.3276C32.919 27.3276 34.0559 27.7908 34.9401 28.5909L37.0455 30.4857C39.0245 32.2963 39.1929 35.3701 37.3823 37.3491L36.1191 38.7387C35.7822 39.1176 35.3612 39.4545 34.898 39.7071C33.719 40.4229 32.161 40.7598 30.5189 40.5914C16.8341 39.4124 5.42306 29.0961 2.85453 15.5798C2.30714 12.7586 3.31771 10.6532 4.15985 9.93743C4.20195 9.89532 4.20195 9.89532 4.24406 9.85321L4.28617 9.769C4.32828 9.72689 4.32828 9.72689 4.37038 9.68478C4.4967 9.51636 4.62302 9.34793 4.74935 9.1795L5.97045 7.87418Z" fill="#FFC20A"/>
<path d="M42.9826 20.0008C42.9826 8.9688 34.0138 0 22.9818 0C22.0133 0 21.2133 0.800034 21.2133 1.7685C21.2133 2.73696 22.0133 3.53699 22.9818 3.53699C32.0769 3.53699 39.4877 10.9478 39.4877 20.043C39.4877 21.0114 40.2877 21.8115 41.2562 21.8115C42.2247 21.7693 42.9826 20.9693 42.9826 20.0008ZM41.2562 20.9272C40.7509 20.9272 40.3299 20.5061 40.3299 20.0008C40.3299 10.4425 32.5401 2.65274 22.9818 2.65274C22.4765 2.65274 22.0554 2.23167 22.0554 1.72639C22.0975 1.26321 22.4765 0.842141 22.9818 0.842141C33.5506 0.842141 42.1405 9.43198 42.1405 20.0008C42.1405 20.5061 41.7615 20.9272 41.2562 20.9272Z" fill="#FFC20A"/>
<path d="M22.7714 6.52661C21.803 6.52661 21.0029 7.32665 21.0029 8.29511C21.0029 9.26357 21.803 10.0636 22.7714 10.0636C28.4138 10.0636 32.9613 14.6533 32.9613 20.2535C32.9613 21.222 33.7613 22.022 34.7298 22.022C35.6983 22.022 36.4983 21.222 36.4983 20.2535C36.4983 12.6742 30.3507 6.52661 22.7714 6.52661ZM34.7298 21.1378C34.2245 21.1378 33.8034 20.7167 33.8034 20.2114C33.8034 14.1059 28.8348 9.17936 22.7714 9.17936C22.2661 9.17936 21.8451 8.75829 21.8451 8.253C21.8451 7.74772 22.2661 7.32665 22.7714 7.32665C29.8454 7.32665 35.614 13.0953 35.614 20.1693C35.6561 20.7167 35.2351 21.1378 34.7298 21.1378Z" fill="#FFC20A"/>
</svg>
