<svg width="30" height="57" viewBox="0 0 30 57" fill="none" xmlns="http://www.w3.org/2000/svg">
<path d="M19.0302 17.5861C23.1088 18.583 26.2689 21.0664 27.3323 24.1601C28.4139 27.429 29 31.1933 29 35.1933C29 37.5256 28.7885 39.858 28.3474 42.148C27.7432 45.2779 26.5589 48.6132 24.3474 51.0362C22.0272 53.58 18.4199 55.0181 15.006 55.0181C11.9063 55.0181 8.96375 53.7673 6.59517 51.7492C3.7432 49.3141 2.49245 46.2628 1.7432 42.6374C1.23565 40.1903 1 37.6888 1 35.1933C1 32.6857 1.22357 30.1782 1.7432 27.725C2.19637 25.5921 2.70997 23.3202 4.12991 21.6042C6.15408 19.157 9.22356 17.7915 12.3535 17.3081" stroke="#FFC20A" stroke-width="2" stroke-miterlimit="10"/>
<path d="M14.9763 27.6103C14.8796 21.3444 14.7708 13.9305 19.8101 9.7432C22.5714 7.44713 28.7708 5.61631 28.2874 1" stroke="#FFC20A" stroke-width="2" stroke-miterlimit="10"/>
<path d="M1.74866 27.7251H28.2502" stroke="#FFC20A" stroke-width="2" stroke-miterlimit="10"/>
</svg>
