<svg width="32" height="32" viewBox="0 0 32 32" fill="none" xmlns="http://www.w3.org/2000/svg">
<path d="M10.7936 24.7083H6.8969V12.9849H10.7936V24.7083ZM8.84538 11.384H8.81999C7.51237 11.384 6.66667 10.4839 6.66667 9.35889C6.66667 8.2085 7.53825 7.33325 8.87126 7.33325C10.2043 7.33325 11.0246 8.2085 11.05 9.35889C11.05 10.4839 10.2043 11.384 8.84538 11.384ZM24.8444 24.7083H20.9482V18.4365C20.9482 16.8604 20.384 15.7854 18.974 15.7854C17.8976 15.7854 17.2565 16.5105 16.9748 17.2104C16.8718 17.4609 16.8466 17.811 16.8466 18.1614V24.7083H12.9501C12.9501 24.7083 13.0011 14.0847 12.9501 12.9849H16.8466V14.6448C17.3644 13.8459 18.2909 12.7097 20.3583 12.7097C22.922 12.7097 24.8444 14.3853 24.8444 17.9861V24.7083Z" fill="white"/>
</svg>
