<svg width="32" height="32" viewBox="0 0 32 32" fill="none" xmlns="http://www.w3.org/2000/svg">
<path d="M16 8.89478C18.3143 8.89478 18.5881 8.90372 19.5022 8.94535C20.3471 8.98388 20.806 9.12493 21.1115 9.24362C21.5161 9.40084 21.8047 9.58868 22.1082 9.89176C22.4116 10.1952 22.5994 10.4838 22.7563 10.8884C22.875 11.1939 23.016 11.6528 23.0546 12.4977C23.0962 13.4115 23.1051 13.6857 23.1051 15.9999C23.1051 18.3142 23.0962 18.588 23.0546 19.5021C23.016 20.347 22.875 20.8059 22.7563 21.1114C22.5991 21.516 22.4112 21.8046 22.1082 22.1081C21.8047 22.4115 21.5161 22.5993 21.1115 22.7562C20.806 22.8749 20.3471 23.016 19.5022 23.0545C18.5884 23.0961 18.3143 23.1051 16 23.1051C13.6857 23.1051 13.4116 23.0961 12.4978 23.0545C11.6529 23.016 11.194 22.8749 10.8885 22.7562C10.4839 22.599 10.1953 22.4112 9.89184 22.1081C9.58841 21.8046 9.40058 21.516 9.2437 21.1114C9.12501 20.8059 8.98396 20.347 8.94543 19.5021C8.9038 18.5884 8.89486 18.3142 8.89486 15.9999C8.89486 13.6857 8.9038 13.4118 8.94543 12.4977C8.98396 11.6528 9.12501 11.1939 9.2437 10.8884C9.40092 10.4838 9.58876 10.1952 9.89184 9.89176C10.1953 9.58833 10.4839 9.4005 10.8885 9.24362C11.194 9.12493 11.6529 8.98388 12.4978 8.94535C13.4119 8.90372 13.6857 8.89478 16 8.89478ZM16 7.33325C13.6462 7.33325 13.351 7.34323 12.4266 7.38554C11.5043 7.42751 10.8744 7.57407 10.3229 7.7884C9.75286 8.00995 9.2695 8.30615 8.78787 8.78813C8.30623 9.26977 8.00968 9.75312 7.78848 10.3228C7.57415 10.8743 7.42759 11.5042 7.38562 12.4265C7.34331 13.3509 7.33333 13.6461 7.33333 15.9999C7.33333 18.3537 7.34331 18.6489 7.38562 19.5733C7.42759 20.4956 7.57415 21.1255 7.78848 21.677C8.01003 22.2471 8.30623 22.7304 8.78821 23.212C9.27019 23.694 9.7532 23.9902 10.3232 24.2118C10.8744 24.4261 11.5046 24.5727 12.427 24.6146C13.3514 24.6569 13.6465 24.6669 16.0003 24.6669C18.3542 24.6669 18.6493 24.6569 19.5737 24.6146C20.4961 24.5727 21.1263 24.4261 21.6774 24.2118C22.2475 23.9902 22.7308 23.694 23.2125 23.212C23.6945 22.7301 23.9907 22.2471 24.2122 21.677C24.4265 21.1259 24.5731 20.4956 24.6151 19.5733C24.6574 18.6489 24.6674 18.3537 24.6674 15.9999C24.6674 13.6461 24.6574 13.3509 24.6151 12.4265C24.5731 11.5042 24.4265 10.874 24.2122 10.3228C23.9907 9.75278 23.6945 9.26942 23.2125 8.78779C22.7305 8.30581 22.2475 8.0096 21.6774 7.78805C21.1256 7.57407 20.4957 7.42751 19.5734 7.38554C18.649 7.34323 18.3538 7.33325 16 7.33325Z" fill="white"/>
<path d="M15.9999 11.5498C13.5419 11.5498 11.5496 13.5424 11.5496 16.0001C11.5496 18.4578 13.5422 20.4504 15.9999 20.4504C18.4576 20.4504 20.4502 18.4578 20.4502 16.0001C20.4502 13.5424 18.458 11.5498 15.9999 11.5498ZM15.9999 18.8889C14.4044 18.8889 13.1112 17.5953 13.1112 16.0001C13.1112 14.4045 14.4047 13.1113 15.9999 13.1113C17.5952 13.1113 18.8887 14.4049 18.8887 16.0001C18.8887 17.5957 17.5955 18.8889 15.9999 18.8889Z" fill="white"/>
<path d="M20.6265 12.4135C21.2009 12.4135 21.6665 11.9479 21.6665 11.3735C21.6665 10.7991 21.2009 10.3335 20.6265 10.3335C20.0521 10.3335 19.5865 10.7991 19.5865 11.3735C19.5865 11.9479 20.0521 12.4135 20.6265 12.4135Z" fill="white"/>
</svg>
