<svg width="193" height="28" viewBox="0 0 193 28" fill="none" xmlns="http://www.w3.org/2000/svg">
<g clip-path="url(#clip0)">
<path d="M90.7488 22.1496C90.7488 23.9546 90.2341 25.3606 89.2046 26.3676C88.1751 27.3746 86.7875 27.8781 85.0418 27.8781C84.1466 27.8781 83.3185 27.7926 82.5576 27.6216C81.7966 27.4506 81.1625 27.2131 80.6552 26.9091V24.4581C81.1923 24.7621 81.8563 25.0376 82.6471 25.2846C83.4528 25.5316 84.2809 25.6551 85.1313 25.6551C86.3249 25.6551 87.2202 25.3606 87.817 24.7716C88.4287 24.1826 88.7346 23.3846 88.7346 22.3776C88.7346 21.7126 88.6227 21.1521 88.3989 20.6961C88.1751 20.2401 87.7871 19.8221 87.2351 19.4421C86.698 19.0431 85.9445 18.6251 84.9747 18.1881C83.6169 17.5611 82.5874 16.7916 81.8861 15.8796C81.1998 14.9676 80.8566 13.7231 80.8566 12.1461C80.8566 11.0631 81.073 10.1416 81.5057 9.38164C81.9384 8.60265 82.5352 8.00415 83.2961 7.58615C84.072 7.16815 84.9597 6.95915 85.9594 6.95915C86.8397 6.95915 87.6454 7.06365 88.3765 7.27265C89.1076 7.48165 89.7716 7.75715 90.3684 8.09915L89.7417 10.2936C89.1897 9.98964 88.5854 9.73315 87.9289 9.52415C87.2873 9.31515 86.6159 9.21065 85.9146 9.21065C84.915 9.21065 84.1615 9.48615 83.6542 10.0371C83.1469 10.5691 82.8933 11.2816 82.8933 12.1746C82.8933 12.8586 83.0052 13.4286 83.229 13.8846C83.4528 14.3406 83.8183 14.7491 84.3256 15.1101C84.8329 15.4711 85.5192 15.8606 86.3846 16.2786C87.3246 16.7156 88.1154 17.1906 88.757 17.7036C89.4135 18.1976 89.9058 18.7961 90.2341 19.4991C90.5773 20.2021 90.7488 21.0856 90.7488 22.1496Z" fill="white"/>
<path d="M107.15 19.9266C107.15 22.4536 106.643 24.4106 105.628 25.7976C104.628 27.1846 103.271 27.8781 101.555 27.8781C100.495 27.8781 99.548 27.5741 98.7125 26.9661C97.8918 26.3391 97.2428 25.4366 96.7654 24.2586C96.2879 23.0616 96.0492 21.6176 96.0492 19.9266C96.0492 17.3996 96.549 15.4521 97.5487 14.0841C98.5483 12.7161 99.9061 12.0321 101.622 12.0321C102.711 12.0321 103.666 12.3456 104.487 12.9726C105.322 13.5806 105.971 14.4736 106.434 15.6516C106.911 16.8106 107.15 18.2356 107.15 19.9266ZM98.0858 19.9266C98.0858 21.7316 98.3618 23.1661 98.9139 24.2301C99.4809 25.2751 100.376 25.7976 101.6 25.7976C102.808 25.7976 103.696 25.2751 104.263 24.2301C104.83 23.1661 105.113 21.7316 105.113 19.9266C105.113 18.1216 104.83 16.7061 104.263 15.6801C103.696 14.6541 102.801 14.1411 101.577 14.1411C100.354 14.1411 99.4659 14.6541 98.9139 15.6801C98.3618 16.7061 98.0858 18.1216 98.0858 19.9266Z" fill="white"/>
<path d="M118.821 14.2551H115.799V27.5931H113.83V14.2551H111.726V13.0866L113.83 12.2316V11.3481C113.83 9.37215 114.173 7.95665 114.859 7.10165C115.546 6.22765 116.501 5.79065 117.724 5.79065C118.201 5.79065 118.634 5.84765 119.022 5.96165C119.425 6.05665 119.768 6.17065 120.052 6.30365L119.537 8.27015C119.298 8.17515 119.022 8.08015 118.709 7.98515C118.395 7.89015 118.075 7.84265 117.746 7.84265C117.09 7.84265 116.598 8.12765 116.269 8.69765C115.956 9.24865 115.799 10.1226 115.799 11.3196V12.3171H118.821V14.2551Z" fill="white"/>
<path d="M128.013 25.8261C128.312 25.8261 128.618 25.7976 128.931 25.7406C129.244 25.6646 129.498 25.5886 129.692 25.5126V27.4221C129.483 27.5551 129.185 27.6596 128.797 27.7356C128.409 27.8306 128.036 27.8781 127.678 27.8781C127.051 27.8781 126.469 27.7451 125.932 27.4791C125.41 27.1941 124.985 26.7096 124.656 26.0256C124.328 25.3416 124.164 24.3821 124.164 23.1471V14.2551H122.463V13.0581L124.186 12.0606L124.97 8.81165H126.134V12.3171H129.603V14.2551H126.134V23.0901C126.134 24.0211 126.305 24.7146 126.648 25.1706C127.006 25.6076 127.461 25.8261 128.013 25.8261Z" fill="white"/>
<path d="M142.859 18.9576C142.665 18.1786 142.494 17.4186 142.344 16.6776C142.21 15.9176 142.106 15.3286 142.031 14.9106H141.942C141.882 15.3286 141.785 15.9176 141.651 16.6776C141.516 17.4186 141.345 18.1881 141.136 18.9861L138.987 27.5646H136.749L133.459 12.2886H135.496L137.152 20.4396C137.316 21.2566 137.473 22.0831 137.622 22.9191C137.771 23.7551 137.876 24.4486 137.935 24.9996H138.025C138.085 24.6766 138.152 24.2776 138.226 23.8026C138.316 23.3276 138.413 22.8336 138.517 22.3206C138.622 21.7886 138.726 21.3136 138.831 20.8956L140.957 12.2886H143.105L145.164 20.8956C145.328 21.5416 145.485 22.2446 145.634 23.0046C145.798 23.7646 145.91 24.4201 145.97 24.9711H146.06C146.104 24.4961 146.201 23.8406 146.35 23.0046C146.515 22.1686 146.686 21.3136 146.865 20.4396L148.544 12.2886H150.558L147.223 27.5646H144.918L142.859 18.9576Z" fill="white"/>
<path d="M160.274 12.0606C161.736 12.0606 162.818 12.4691 163.519 13.2861C164.221 14.1031 164.571 15.4046 164.571 17.1906V27.5931H163.139L162.758 25.4271H162.669C162.147 26.2631 161.595 26.8806 161.013 27.2796C160.446 27.6786 159.655 27.8781 158.64 27.8781C157.551 27.8781 156.649 27.5171 155.932 26.7951C155.216 26.0541 154.858 24.9046 154.858 23.3466C154.858 21.8266 155.328 20.6581 156.268 19.8411C157.208 19.0051 158.655 18.5491 160.61 18.4731L162.646 18.3876V17.4756C162.646 16.2026 162.43 15.3191 161.997 14.8251C161.565 14.3311 160.953 14.0841 160.162 14.0841C159.536 14.0841 158.939 14.2076 158.372 14.4546C157.805 14.6826 157.275 14.9486 156.783 15.2526L156.179 13.3716C156.701 13.0106 157.32 12.7066 158.036 12.4596C158.752 12.1936 159.498 12.0606 160.274 12.0606ZM160.856 20.2116C159.364 20.2876 158.327 20.5916 157.745 21.1236C157.178 21.6556 156.895 22.4061 156.895 23.3751C156.895 24.2301 157.096 24.8571 157.499 25.2561C157.917 25.6551 158.446 25.8546 159.088 25.8546C160.103 25.8546 160.946 25.5031 161.617 24.8001C162.288 24.0781 162.624 22.9761 162.624 21.4941V20.1261L160.856 20.2116Z" fill="white"/>
<path d="M176.893 12.0321C177.117 12.0321 177.355 12.0511 177.609 12.0891C177.878 12.1081 178.109 12.1461 178.303 12.2031L178.057 14.5116C177.863 14.4546 177.646 14.4071 177.408 14.3691C177.184 14.3311 176.967 14.3121 176.758 14.3121C176.147 14.3121 175.572 14.5306 175.035 14.9676C174.498 15.3856 174.065 15.9841 173.737 16.7631C173.424 17.5231 173.267 18.4161 173.267 19.4421V27.5931H171.298V12.3171H172.909L173.133 15.1101H173.222C173.61 14.2741 174.11 13.5521 174.722 12.9441C175.334 12.3361 176.057 12.0321 176.893 12.0321Z" fill="white"/>
<path d="M187.76 12.0321C188.789 12.0321 189.67 12.3171 190.401 12.8871C191.147 13.4571 191.714 14.2646 192.102 15.3096C192.504 16.3356 192.706 17.5421 192.706 18.9291V20.4396H184.492C184.522 22.1686 184.865 23.4891 185.522 24.4011C186.193 25.2941 187.126 25.7406 188.319 25.7406C189.08 25.7406 189.752 25.6551 190.333 25.4841C190.93 25.2941 191.542 25.0281 192.169 24.6861V26.8806C191.557 27.2226 190.953 27.4696 190.356 27.6216C189.759 27.7926 189.05 27.8781 188.23 27.8781C187.096 27.8781 186.089 27.5836 185.208 26.9946C184.343 26.4056 183.664 25.5316 183.172 24.3726C182.694 23.1946 182.456 21.7601 182.456 20.0691C182.456 18.3971 182.672 16.9626 183.105 15.7656C183.552 14.5686 184.171 13.6471 184.962 13.0011C185.768 12.3551 186.7 12.0321 187.76 12.0321ZM187.737 14.0841C186.797 14.0841 186.051 14.4736 185.499 15.2526C184.962 16.0126 184.641 17.0766 184.537 18.4446H190.647C190.632 17.1526 190.393 16.1076 189.931 15.3096C189.468 14.4926 188.737 14.0841 187.737 14.0841Z" fill="white"/>
<path d="M59.6653 27.7384L49.2747 0.206908L52.8465 0.206908C52.8465 0.206908 60.9912 21.0881 61.5594 24.3616L61.343 24.3616C61.9924 21.1226 69.7312 0.206909 69.7312 0.206909L73.303 0.206909L63.3183 27.7384L59.6653 27.7384Z" fill="white"/>
<path d="M45.1076 14.8167L30.117 14.8167L30.117 24.5337L46.8935 24.5337L46.8935 27.5659L26.7347 27.5659L26.7347 -8.1206e-07L46.1359 -3.05204e-08L46.1359 3.03225L30.1171 3.03225L30.117 11.8533L45.1076 11.8533L45.1076 14.8167Z" fill="white"/>
<path d="M22.1882 13.5073C22.1882 6.03005 17.4529 -1.90752e-07 11.5812 -4.27285e-07L-5.72205e-06 -8.9381e-07L-7.02954e-06 27.5659L11.1482 27.5659C17.2365 27.5659 22.1882 21.2602 22.1882 13.5073ZM3.51764 24.2925L3.51764 3.27345L10.4718 3.27345C14.9906 3.27345 18.6706 7.95966 18.6706 13.714L18.6706 13.8519C18.6706 19.6063 14.9906 24.2925 10.4718 24.2925L3.51764 24.2925Z" fill="white"/>
<ellipse cx="99.6599" cy="13.7497" rx="2.8775" ry="3.66428" fill="#FDCB37"/>
<path d="M68.6438 28.0001L77.0205 3.16443L77.0205 28.0001L68.6438 28.0001Z" fill="#FDCB37"/>
</g>
<defs>
<clipPath id="clip0">
<rect width="192.706" height="28.0001" fill="white"/>
</clipPath>
</defs>
</svg>
