<svg width="729" height="493" viewBox="0 0 729 493" fill="none" xmlns="http://www.w3.org/2000/svg">
<g clip-path="url(#clip0)">
<path d="M141.291 201.913C135.312 192.945 124.613 189.276 124.613 189.276L120.837 190.771L129.176 203.815C128.075 208.842 124.141 211.56 124.141 211.56C124.141 211.56 119.106 212.375 113.914 209.929L107.621 196.07L103.844 197.565C103.844 197.565 100.226 206.94 104.316 216.587C104.316 216.587 105.89 219.712 106.205 219.984C107.621 221.479 111.554 223.109 118.949 222.838L144.438 264.823C142.393 267.949 141.921 271.889 143.809 275.422C146.956 281.129 154.823 283.71 161.588 280.993C168.197 278.275 171.186 271.481 168.039 265.639C166.151 262.106 162.375 259.796 158.284 259.117L137.358 215.364C142.393 210.88 143.337 207.212 143.022 205.174C143.022 204.902 141.291 201.913 141.291 201.913ZM162.218 274.335L155.452 277.052L149.316 273.384L149.945 266.998L156.711 264.28L162.847 267.949L162.218 274.335Z" fill="url(#paint0_linear)"/>
<path d="M143.18 205.309C137.201 196.342 126.502 192.673 126.502 192.673L122.725 194.167L131.064 207.212C129.963 212.239 126.029 214.957 126.029 214.957C126.029 214.957 120.995 215.772 115.802 213.326L109.509 199.467L105.733 200.961C105.733 200.961 102.114 210.337 106.205 219.984C106.205 219.984 112.026 226.642 120.68 226.234L146.169 268.22C144.124 271.345 143.652 275.286 145.54 278.819C148.686 284.525 156.554 287.107 163.319 284.39C169.927 281.672 172.917 274.878 169.77 269.035C167.882 265.503 164.106 263.193 160.015 262.513L139.089 218.761C145.382 213.462 143.18 205.309 143.18 205.309ZM164.106 277.732L157.34 280.449L151.204 276.78L151.833 270.394L158.599 267.677L164.735 271.345L164.106 277.732Z" fill="url(#paint1_linear)"/>
<path d="M107.794 196.184L104.087 197.68L105.952 201.127L109.659 199.631L107.794 196.184Z" fill="#E5E2FF"/>
<path d="M124.774 189.359L121.068 190.855L122.932 194.301L126.639 192.806L124.774 189.359Z" fill="#E5E2FF"/>
<path d="M162.217 274.391L155.517 277.095L157.382 280.541L164.082 277.838L162.217 274.391Z" fill="#E5E2FF"/>
<path d="M126.501 229.495L147.113 263.736C152.462 264.008 155.452 260.339 155.452 260.339L138.617 224.603C131.064 224.332 126.501 229.495 126.501 229.495ZM153.721 260.475C153.092 260.882 152.148 261.562 151.046 261.969C150.102 262.377 149.158 262.649 148.214 262.649L127.603 229.223C128.547 228.408 130.278 227.321 132.638 226.37C134.368 225.69 135.942 225.283 137.673 225.011L153.721 260.475Z" fill="url(#paint2_linear)"/>
<path d="M153.721 260.475L155.295 260.204C155.295 260.204 152.935 263.872 146.956 263.601L148.214 262.785C148.214 262.785 151.204 262.514 153.721 260.475Z" fill="#E5E2FF"/>
<path opacity="0.62" d="M126.501 229.495L127.76 229.359C127.76 229.359 131.222 226.234 137.83 225.283L138.774 224.604C138.774 224.604 136.099 224.196 132.008 225.827C127.76 227.457 126.501 229.495 126.501 229.495Z" fill="url(#paint3_linear)"/>
<path opacity="0.62" d="M120.995 226.37C120.995 226.37 130.907 224.876 139.403 219.033L142.078 224.604C142.078 224.604 139.089 222.022 132.323 224.332C124.456 227.05 124.928 232.485 124.928 232.485L120.995 226.37Z" fill="url(#paint4_linear)"/>
<path opacity="0.5" d="M142.078 224.604C140.19 223.381 137.987 223.381 137.987 223.381L157.969 264.959L160.329 262.785L142.078 224.604Z" fill="url(#paint5_linear)"/>
<path d="M142.078 224.604C142.078 224.604 140.033 230.175 146.012 232.757L142.078 224.604Z" fill="white"/>
<path d="M441.969 493.232H368.019C360.309 456.137 342.215 407.765 342.215 407.765C337.809 405.591 329.313 408.309 329.313 408.309L302.408 493.232H234.909C231.29 440.783 264.489 381.405 264.489 381.405C264.332 381.269 263.388 379.367 263.545 378.144C263.702 377.601 264.804 376.65 266.062 375.563C267.95 374.068 269.996 372.709 269.996 372.709L396.025 372.03C396.025 372.03 397.284 372.573 398.857 373.389C401.689 374.883 405.308 377.057 405.308 378.688C405.308 380.862 404.207 382.356 404.05 382.764V382.9C431.112 426.788 441.969 493.232 441.969 493.232Z" fill="url(#paint6_linear)"/>
<path d="M293.597 493.232L292.81 493.096C301.464 449.343 323.177 412.657 323.491 412.249L323.649 412.113L329.156 407.901L329.628 408.445L324.121 412.657C323.177 414.423 302.093 450.431 293.597 493.232Z" fill="url(#paint7_linear)"/>
<path d="M378.089 493.232C369.592 450.295 347.879 414.016 346.935 412.385L342.058 408.581L342.53 408.037L347.565 411.978C347.722 412.385 370.222 449.344 378.718 493.096L378.089 493.232Z" fill="url(#paint8_linear)"/>
<path opacity="0.76" d="M405.466 378.688C405.466 380.862 404.364 382.356 404.207 382.764V382.9C377.931 388.063 357.949 409.124 357.949 409.124C372.267 432.767 396.025 493.232 396.025 493.232H368.019C360.309 456.137 342.215 407.765 342.215 407.765C337.809 405.591 329.313 408.309 329.313 408.309L302.408 493.232H284.943C291.237 457.632 309.645 414.287 309.645 414.287C291.394 396.08 264.489 381.405 264.489 381.405L261.342 379.639L263.702 378.144C275.345 387.791 313.107 400.428 314.208 400.836L266.22 375.563C268.108 374.068 270.153 372.709 270.153 372.709L396.183 372.03C396.183 372.03 397.441 372.573 399.015 373.389L364.557 389.694L405.466 378.688Z" fill="url(#paint9_linear)"/>
<path opacity="0.76" d="M342.372 407.765L357.005 399.613L353.543 407.765L351.026 432.631L342.372 407.765Z" fill="url(#paint10_linear)"/>
<path opacity="0.76" d="M329.471 408.309L314.051 400.836L281.324 388.063L323.02 411.978L325.537 420.402L329.471 408.309Z" fill="url(#paint11_linear)"/>
<path d="M371.637 152.997C371.795 153.54 371.795 153.948 371.795 153.948C371.008 156.666 370.064 159.247 369.12 161.693C365.973 169.302 362.197 174.737 359.365 178.134C356.847 181.123 355.117 182.482 355.117 182.482C332.145 176.232 320.817 156.802 316.568 147.29V147.154C315.782 145.388 315.152 143.893 314.838 142.942C314.523 142.127 314.523 141.719 314.523 141.719C314.68 141.583 314.68 141.447 314.838 141.176V141.04C315.152 140.36 315.624 139.681 315.939 139.002C318.928 133.295 320.974 127.996 322.233 123.784C323.334 120.251 323.963 117.533 324.278 116.039C324.435 115.223 324.435 114.816 324.435 114.816L335.134 119.707L371.952 136.556C371.323 139.409 371.165 142.263 371.165 144.573C371.165 146.203 371.165 147.834 371.323 149.057C371.48 150.687 371.637 151.91 371.795 152.725C371.48 152.997 371.637 152.997 371.637 152.997Z" fill="#FE9083"/>
<path d="M361.41 184.52C359.208 186.287 356.847 187.917 353.858 189.276C353.858 189.276 353.701 189.276 353.701 189.412C353.701 189.412 353.701 189.412 353.543 189.276C352.757 188.868 350.082 187.374 346.306 185.064C336.708 178.813 320.659 166.177 315.939 149.057C315.939 149.057 315.939 149.057 315.939 148.921C315.467 146.882 314.995 144.844 314.838 142.67C314.838 142.127 314.68 141.583 314.68 141.04C314.68 141.04 317.827 147.562 323.491 154.492C329.942 162.78 339.697 171.748 351.498 171.748C361.568 171.748 366.76 165.769 369.435 160.334C370.536 158.024 371.165 155.714 371.637 154.084C371.795 153.54 371.795 153.133 371.952 152.861C371.952 152.725 371.952 152.453 371.952 152.318C372.109 151.774 372.109 151.366 372.109 151.366C372.109 151.366 375.571 172.291 361.41 184.52Z" fill="url(#paint12_linear)"/>
<path opacity="0.5" d="M361.41 184.52C359.208 186.287 356.847 187.917 353.858 189.276H353.543H353.386C352.599 188.868 349.924 187.374 346.148 185.064C336.551 178.813 320.502 166.177 315.782 149.056C315.782 149.056 315.782 149.057 315.782 148.921C315.31 146.882 314.838 144.844 314.68 142.67C314.68 142.127 314.523 141.583 314.523 141.04C314.523 141.04 317.67 147.562 323.334 154.492C323.334 154.492 329.628 169.574 343.474 177.047C350.397 180.852 355.589 180.308 359.365 177.998C363.141 175.824 365.659 172.02 367.232 169.166C368.648 166.313 369.12 163.595 369.277 161.557C369.277 161.149 369.277 160.742 369.277 160.334C370.379 158.024 371.008 155.714 371.48 154.084C371.637 153.54 371.637 153.133 371.795 152.861C371.795 152.725 371.795 152.453 371.795 152.318C371.952 151.774 371.952 151.366 371.952 151.366C371.952 151.366 375.571 172.291 361.41 184.52Z" fill="url(#paint13_linear)"/>
<path d="M449.678 307.76C449.521 307.76 449.363 307.896 449.363 307.896C448.105 308.032 444.014 307.217 438.822 303.412C434.416 300.151 429.067 294.58 423.874 285.477C413.333 267.269 410.343 255.176 409.871 253.002V252.73L403.735 261.155C399.644 272.025 391.62 316.728 391.777 318.766C391.934 320.669 398.7 330.044 398.7 331.267C398.543 332.49 395.396 335.072 394.609 337.789C393.98 339.691 398.228 345.534 401.06 349.882C402.633 352.192 403.735 354.094 403.735 354.774C403.735 356.812 396.34 366.867 396.34 366.867V372.302L396.183 372.438L395.868 372.709L395.553 372.845C392.721 374.747 380.763 381.134 343.159 382.9C298.789 384.938 269.052 372.573 269.052 372.573L271.254 367.274C271.254 367.274 269.209 365.78 269.052 364.964C268.894 364.149 270.625 362.383 270.625 362.383C270.625 362.383 266.22 360.345 266.22 357.763C266.22 355.181 275.188 347.165 274.873 340.371C274.559 333.577 267.793 327.462 266.849 323.658C265.905 319.853 278.492 310.206 278.492 310.206C267.793 280.857 265.748 241.453 265.748 241.453L263.702 239.414C263.702 239.414 250.958 264.687 239.314 277.052C237.898 278.547 236.482 280.042 234.909 281.4C231.605 284.39 228.301 287.243 224.839 289.689C216.815 295.803 209.42 299.744 207.689 299.472C204.7 298.928 192.742 278.547 193.371 257.758C193.686 247.839 200.609 236.697 207.689 227.865C208.476 226.914 209.262 225.963 210.049 225.012C215.084 219.033 220.119 214.277 222.322 212.239C223.266 211.424 223.738 211.016 223.738 211.016C223.738 211.016 222.164 206.396 220.906 202.456C220.906 202.32 220.906 202.32 220.748 202.184V202.048C220.748 201.913 220.748 201.913 220.748 201.913C220.119 199.467 219.647 197.429 220.119 196.885C221.063 195.526 226.885 193.896 227.829 192.945C228.773 191.858 233.021 174.601 236.168 172.699C239.157 170.933 244.664 169.574 262.443 163.459C263.387 163.188 264.174 162.916 265.118 162.508C285.258 155.715 304.925 147.29 304.925 147.29L312.478 139.273H315.782L314.68 141.312V141.447C315.152 143.486 315.782 145.524 316.568 147.426V147.562C326.953 175.824 353.701 184.928 353.701 184.928C372.267 173.107 371.952 154.356 371.952 154.356V151.774L375.414 152.725L377.774 157.617C377.774 157.617 381.865 163.052 397.756 169.03C400.588 170.117 403.42 171.34 406.567 172.971C421.2 180.172 437.406 191.178 438.664 193.488C438.822 193.76 438.979 194.168 439.136 194.711C440.867 200.554 444.329 222.294 447.633 230.039C449.678 234.931 452.982 237.512 455.342 239.007C457.073 240.094 458.332 240.366 458.332 240.366C458.647 241.588 458.804 242.811 458.961 243.898C465.569 280.721 452.668 305.994 449.678 307.76Z" fill="url(#paint14_linear)"/>
<path opacity="0.5" d="M278.492 237.512L265.59 241.317L263.545 239.278C263.545 239.278 250.8 264.551 239.157 276.916C237.741 278.411 236.325 279.906 234.752 281.264C231.448 284.254 228.143 287.107 224.682 289.553L214.769 252.73L209.735 224.74C214.77 218.761 219.804 214.005 222.007 211.967C222.951 211.152 223.423 210.744 223.423 210.744C223.423 210.744 221.85 206.125 220.591 202.184C220.591 202.048 220.591 202.048 220.434 201.912V201.777C220.434 201.641 220.434 201.641 220.434 201.641C219.804 199.195 219.332 197.157 219.804 196.613C220.748 195.254 226.57 193.624 227.514 192.673C228.458 191.586 232.706 174.33 235.853 172.427C235.853 172.427 233.808 189.004 244.821 210.201L250.171 216.723L265.905 227.593C266.062 227.457 272.041 234.387 278.492 237.512Z" fill="url(#paint15_linear)"/>
<path d="M240.888 267.541C238.056 285.341 207.374 299.064 207.374 299.064C200.452 299.064 192.899 288.738 185.976 276.101C179.053 263.329 178.581 226.914 178.267 224.604C177.952 222.294 174.018 217.81 173.861 215.908C173.704 214.005 180.155 209.929 180.155 209.929V209.793V209.657C179.525 208.435 175.592 201.369 175.906 200.01C176.221 198.651 183.459 195.526 183.459 195.526L183.931 202.456C183.931 202.456 200.924 199.738 206.588 188.325L207.532 184.792L210.364 186.423V201.369C210.364 201.369 210.993 203.679 211.78 203.679C212.724 203.679 219.332 200.825 220.591 201.233C222.007 201.641 223.423 209.657 225.154 210.609C227.042 211.696 231.92 214.549 232.706 216.044C233.021 216.723 233.021 219.033 233.021 221.615C233.021 224.876 233.021 228.816 233.65 230.99C234.752 235.474 243.72 249.741 240.888 267.541Z" fill="url(#paint16_linear)"/>
<path d="M522.527 252.322C521.111 254.225 514.188 258.165 512.457 259.66C510.726 261.154 512.457 266.318 512.457 266.318C483.192 293.085 452.825 306.537 449.678 307.76C449.521 307.76 449.363 307.896 449.363 307.896C430.955 297.298 432.528 279.77 438.664 264.959C444.486 250.828 454.398 239.142 454.87 238.599C455.185 238.463 460.377 236.561 464.153 236.425C465.412 236.289 466.513 236.697 467.615 237.376C469.818 238.599 471.706 240.501 473.594 239.686C476.269 238.463 482.248 226.234 486.338 225.962C489.17 225.691 493.104 228.272 495.779 229.631C496.88 230.31 497.824 230.718 498.296 230.582C499.87 230.31 504.905 225.011 505.219 224.875C505.534 224.74 507.894 226.234 507.894 226.234L506.321 228.001C508.838 240.365 517.02 248.654 517.02 248.654L522.527 241.724C522.527 241.588 523.943 250.42 522.527 252.322Z" fill="url(#paint17_linear)"/>
<path d="M371.637 152.589C371.637 152.725 371.637 152.997 371.48 153.133C371.48 153.54 371.323 153.812 371.165 154.22C369.277 160.198 361.725 166.313 352.127 163.459C341.743 160.198 321.918 123.919 321.918 123.919L323.963 116.174L371.165 149.328L371.637 152.453V152.589Z" fill="#CB4D7A"/>
<path d="M214.769 145.931C214.769 145.931 211.937 132.208 213.196 122.017C214.455 111.826 212.881 100.413 212.881 100.413C212.881 100.413 210.049 99.3257 208.004 100.413C205.958 101.5 201.081 111.962 203.284 120.387C205.486 128.811 203.756 148.921 203.756 148.921H200.451L193.371 140.36L189.91 139.545C189.91 139.545 169.927 155.85 170.242 165.498L172.917 174.058L197.619 173.378L213.668 157.481L214.769 145.931Z" fill="#EE8183"/>
<path d="M189.752 139.546C189.752 139.546 190.224 150.416 193.056 159.656C193.056 159.656 192.584 163.46 187.392 163.732L186.133 162.509C186.133 162.509 185.189 166.857 180.627 167.129L176.378 163.46L177.48 166.585C177.48 166.585 175.906 169.846 171.815 169.711C171.815 169.711 164.893 165.091 164.578 158.976L171.343 154.085V150.28L179.368 145.389L179.525 142.671C179.525 142.535 184.245 139.41 189.752 139.546Z" fill="url(#paint18_linear)"/>
<path opacity="0.6" d="M213.511 119.164C213.511 119.164 212.252 121.745 210.521 122.832C208.791 123.919 203.913 124.599 203.913 124.599L203.756 148.921H200.451L193.371 140.361C193.371 140.361 196.99 145.252 197.147 148.921L194.315 150.144L191.798 142.806L190.696 148.105L191.798 154.628C191.798 154.628 196.046 151.502 203.756 151.366L204.857 153.133C204.857 153.133 191.011 163.052 187.707 168.895C187.707 168.895 194.63 161.421 210.207 152.997L211.623 149.057L213.668 139.545C213.668 139.545 211.78 125.822 213.511 119.164Z" fill="url(#paint19_linear)"/>
<path d="M225.154 161.421C223.895 164.818 210.364 178.678 208.79 181.667C207.217 184.656 206.43 188.597 206.43 188.597C199.822 200.961 183.773 202.728 183.773 202.728L182.987 191.586C182.987 191.586 174.333 187.238 172.917 184.928L172.76 184.52C172.288 182.346 172.76 174.194 172.76 174.194L187.864 168.895C194.472 161.557 210.364 153.133 210.364 153.133L211.151 149.328C199.665 144.437 201.553 129.762 203.598 127.996C205.486 126.229 209.105 126.229 209.105 126.229C209.105 126.229 213.353 138.051 216.028 143.621C218.388 148.921 226.413 158.024 225.154 161.421Z" fill="url(#paint20_linear)"/>
<path d="M179.525 142.534C179.525 142.534 181.256 155.986 186.133 162.508C186.133 162.508 179.84 155.714 179.368 145.388L179.525 142.534Z" fill="#E28183"/>
<path d="M171.343 150.144C171.343 150.144 172.917 161.014 180.784 167.128C180.784 167.128 173.861 164.139 171.343 153.948V150.144Z" fill="#E28183"/>
<path opacity="0.91" d="M210.836 178.813C210.836 178.813 193.843 193.081 182.829 191.586L183.616 202.728C183.616 202.728 201.553 201.369 207.374 185.064C207.374 185.2 209.42 180.444 210.836 178.813Z" fill="url(#paint21_linear)"/>
<path d="M571.302 198.244C571.302 198.244 555.726 222.973 537.317 230.582H531.023L516.548 249.469C516.548 249.469 507.265 244.442 506.478 227.729C506.478 227.729 509.782 224.74 510.569 221.479C510.569 221.479 505.377 217.946 503.961 215.364C502.545 212.783 502.073 205.038 501.128 201.912C500.184 198.787 491.688 192.129 489.8 191.314C487.912 190.499 479.416 190.091 479.416 190.091C479.416 190.091 478.157 187.374 479.416 186.151C480.674 184.928 493.891 180.444 501.128 184.656C501.128 184.656 501.601 187.917 502.387 189.684C503.174 191.45 509.625 197.429 510.569 197.429C511.513 197.429 515.918 194.303 517.807 191.993C519.537 189.684 529.292 171.748 531.495 165.769V165.633C531.495 165.498 531.495 165.498 531.653 165.362C531.653 165.226 531.653 165.226 531.653 165.226C531.653 165.226 531.653 165.226 531.653 165.09C533.383 159.791 543.925 149.872 549.432 147.018C549.432 147.018 551.792 146.475 553.051 149.056C553.051 149.056 548.645 160.062 543.925 166.585C543.138 167.672 542.352 169.03 541.408 170.389C537.474 176.775 532.911 184.928 532.282 186.151V186.287L534.799 187.374L541.565 181.803L548.488 176.232L564.379 190.635L562.806 192.401L557.928 197.836L560.446 198.244L566.267 192.673L571.302 198.244Z" fill="url(#paint22_linear)"/>
<path opacity="0.6" d="M567.526 203.543L562.491 209.929C562.491 209.929 534.957 191.586 529.135 190.091C523.156 188.597 520.953 189.548 520.953 189.548L514.817 196.342C514.817 196.342 526.146 205.038 527.09 216.723C527.09 216.723 523.314 201.913 510.412 197.429C511.356 197.429 515.761 194.304 517.649 191.994C519.38 189.684 529.135 171.748 531.338 165.769C531.023 166.856 530.551 168.759 531.653 170.389C533.069 172.563 540.936 170.525 541.408 170.389L532.282 186.151V186.287L534.799 187.374L541.565 181.803L538.261 188.597L562.806 192.401L557.928 197.836L560.446 198.244L567.526 203.543Z" fill="url(#paint23_linear)"/>
<path d="M548.488 176.232C548.488 176.232 553.208 175.688 556.355 180.987L555.726 182.754C555.726 182.754 560.446 183.569 564.851 190.091C564.851 190.091 560.918 196.341 551.005 199.195C551.005 199.195 546.442 198.108 545.656 194.711L546.6 192.537L542.981 194.847C542.981 194.847 538.733 195.934 536.845 190.499L548.488 176.232Z" fill="url(#paint24_linear)"/>
<path d="M572.719 196.477C572.719 196.477 573.663 192.537 568.785 189.955L559.345 198.923C559.345 198.923 559.659 201.776 563.75 202.456C563.75 202.592 570.201 200.689 572.719 196.477Z" fill="url(#paint25_linear)"/>
<path opacity="0.91" d="M503.961 215.364C503.961 215.364 514.974 225.963 530.866 230.447L523.943 239.55L509.468 223.789L510.412 221.479C510.569 221.479 504.747 217.674 503.961 215.364Z" fill="url(#paint26_linear)"/>
<path d="M555.568 182.618C555.568 182.618 551.005 189.14 546.442 192.401L545.498 194.575C545.498 194.575 554.309 189.412 557.614 183.433C557.614 183.433 556.67 182.754 555.568 182.618Z" fill="#E28183"/>
<path opacity="0.5" d="M522.526 252.323C521.11 254.225 514.187 258.165 512.457 259.66C510.726 261.155 512.457 266.318 512.457 266.318C483.191 293.086 452.825 306.537 449.678 307.76C449.521 307.76 449.363 307.896 449.363 307.896C447.003 308.168 435.36 305.314 423.717 285.205C413.175 266.997 410.186 254.904 409.714 252.73V252.459L412.231 249.469L416.007 212.375L418.682 219.848C428.752 209.25 438.35 193.081 438.35 193.081L438.822 194.303C440.552 200.146 444.014 221.886 447.318 229.631C449.363 234.523 452.667 237.105 455.028 238.599C445.744 245.936 441.024 256.535 438.822 264.959C436.776 272.704 436.619 278.547 436.619 278.547C436.619 278.547 439.136 268.084 447.318 255.448C450.307 250.828 454.556 246.752 458.804 243.355C461.951 240.773 465.255 238.735 467.772 237.105C469.975 238.327 471.863 240.23 473.751 239.414C461.479 255.312 461.793 286.835 473.279 280.857C484.765 274.878 487.44 262.106 487.44 262.106C484.765 246.616 485.552 229.088 487.754 225.691C490.429 225.827 497.981 230.447 498.453 230.311C497.667 248.654 507.737 260.883 507.737 260.883L514.345 252.187C504.747 238.327 505.534 224.74 505.534 224.74C505.848 224.604 508.209 226.099 508.209 226.099L506.635 227.865C509.153 240.23 517.334 248.518 517.334 248.518L522.841 241.588C522.527 241.588 523.943 250.42 522.526 252.323Z" fill="url(#paint27_linear)"/>
<path opacity="0.5" d="M396.025 366.595V372.03L395.868 372.166L395.553 372.438L395.238 372.573C392.406 374.476 380.448 380.862 342.844 382.628C298.474 384.666 268.737 372.302 268.737 372.302L270.94 367.003C270.94 367.003 268.894 365.508 268.737 364.693C268.58 363.877 270.31 362.111 270.31 362.111C270.31 362.111 265.905 360.073 265.905 357.491C265.905 355.181 273.143 348.387 274.401 342.137C274.559 341.458 274.559 340.778 274.559 340.099C274.244 333.305 267.478 327.327 266.534 323.386C265.59 319.582 278.177 309.934 278.177 309.934C267.478 280.585 265.433 241.181 265.433 241.181L263.387 239.143C263.387 239.143 250.643 264.416 239 276.78C227.357 289.145 210.364 299.744 207.374 299.2C200.451 299.2 192.899 288.874 185.976 276.237C179.053 263.465 178.581 227.05 178.266 224.74C177.952 222.43 174.018 217.946 173.861 216.044C181.256 227.05 193.214 223.925 193.214 223.925C184.56 224.06 180.155 210.201 180.155 210.201V210.065V209.929L175.906 200.282C176.378 200.69 186.291 210.201 195.731 204.358C205.486 198.38 210.521 186.694 210.521 186.694V201.641C210.521 201.641 211.151 203.951 211.937 203.951C211.308 210.88 209.734 219.169 207.689 227.457C203.284 245.257 197.147 262.513 197.147 262.513C197.147 262.513 213.511 254.769 219.332 235.202C222.164 225.827 222.479 217.674 222.322 211.831C222.164 206.804 221.378 203.271 221.063 202.048C221.063 201.913 221.063 201.913 220.906 201.777V201.641C220.906 201.641 220.906 201.641 220.906 201.505L222.479 204.358L225.468 210.88C228.93 236.018 221.692 273.791 221.692 273.791C232.234 262.513 234.437 237.376 233.965 231.262C233.807 228.408 233.493 224.74 233.335 221.886C233.021 218.625 233.021 216.315 233.021 216.315L254.576 227.457L250.643 216.587L266.377 227.457C266.377 227.457 280.538 242.132 295.013 243.898C309.488 245.665 362.826 244.578 362.826 244.578C362.826 244.578 316.568 247.159 303.037 250.556C289.506 253.953 286.988 257.894 286.988 257.894C296.744 300.831 350.869 315.234 352.442 315.777C303.352 309.391 280.538 273.384 280.538 273.384C280.538 273.384 279.751 293.629 283.527 301.374C287.303 309.119 309.645 328.006 338.124 331.946C340.484 332.218 342.844 332.49 345.204 332.626C369.277 333.577 389.26 322.979 391.305 321.756C391.462 321.62 391.462 321.62 391.462 321.62C390.676 322.707 380.763 334.664 340.799 336.023C338.439 336.159 336.079 336.159 333.718 336.023C296.744 334.664 277.863 313.331 277.863 313.331C277.863 313.331 264.174 319.717 272.828 329.093C272.985 329.229 272.985 329.365 273.143 329.365C275.66 331.946 281.324 335.072 288.09 338.333C288.247 338.468 288.405 338.468 288.562 338.604C296.744 342.545 306.184 346.485 313.579 349.746C313.579 349.746 313.579 349.746 313.736 349.746C318.299 351.784 321.918 353.551 323.963 354.774C326.009 356.132 326.481 356.948 324.435 357.084C314.051 358.171 274.873 350.697 273.3 352.735C271.726 354.774 275.188 360.073 275.188 360.073C311.061 375.427 388.001 367.818 390.361 367.682C326.009 382.221 273.3 364.149 273.3 364.149L275.031 369.448C275.031 369.448 303.666 378.009 337.495 378.688C371.323 379.367 392.406 371.894 392.406 371.894L396.025 366.595Z" fill="url(#paint28_linear)"/>
<path opacity="0.5" d="M369.749 244.442C369.749 244.442 395.396 245.665 412.231 249.469L403.577 260.883C403.577 260.883 390.361 250.964 369.749 244.442Z" fill="url(#paint29_linear)"/>
<path opacity="0.5" d="M393.665 305.314C393.665 305.314 377.774 316.864 362.04 322.163C346.306 327.462 331.201 328.006 331.201 328.006C331.201 328.006 340.169 330.316 362.512 327.191C384.697 324.065 392.249 313.739 392.249 313.739L393.665 305.314Z" fill="url(#paint30_linear)"/>
<path opacity="0.5" d="M400.903 349.61C371.323 356.268 333.876 346.757 334.191 345.534C334.505 344.311 344.418 346.077 367.547 342.001C389.889 338.061 398.071 331.267 398.543 330.859C398.385 332.082 395.239 334.664 394.452 337.381C393.665 339.42 397.913 345.262 400.903 349.61Z" fill="url(#paint31_linear)"/>
<path opacity="0.5" d="M320.502 247.839C295.327 250.013 288.404 256.127 288.404 256.127C281.324 256.942 265.433 241.181 265.433 241.181L263.387 239.143C263.387 239.143 250.643 264.416 239 276.78C237.584 278.275 236.168 279.77 234.594 281.128L236.325 277.867C236.325 277.867 239 276.78 239.786 264.416C240.573 252.187 233.807 233.843 233.807 231.398C233.807 228.952 232.706 216.315 232.706 216.315L254.262 227.457L250.328 216.587L266.062 227.457C266.062 227.457 272.198 235.474 287.775 242.132C302.408 248.382 318.771 247.975 320.502 247.839Z" fill="url(#paint32_linear)"/>
<path opacity="0.5" d="M263.387 239.142L278.492 237.512C278.492 237.512 284.471 240.909 296.586 245.257L286.516 258.029C286.516 258.029 290.45 276.237 301.936 286.563C301.936 286.563 271.569 272.025 267.321 259.66L263.387 239.142Z" fill="url(#paint33_linear)"/>
<path opacity="0.5" d="M175.592 200.282L179.84 210.065C179.84 210.065 184.245 223.245 192.899 223.788C201.553 224.332 210.049 201.641 210.049 201.641V186.694C210.049 186.694 200.766 203.815 190.854 205.717C180.941 207.755 175.592 200.282 175.592 200.282Z" fill="url(#paint34_linear)"/>
<path opacity="0.5" d="M227.671 192.537C227.671 192.537 235.381 205.853 244.979 210.065C244.979 210.065 233.65 186.287 236.01 172.291C236.01 172.291 231.762 174.601 227.671 192.537Z" fill="url(#paint35_linear)"/>
<path opacity="0.76" d="M416.007 212.375L418.682 219.848L421.357 281.128C421.357 281.128 414.434 269.443 409.714 252.866L412.231 249.605C412.231 249.469 416.479 226.37 416.007 212.375Z" fill="url(#paint36_linear)"/>
<path opacity="0.5" d="M498.454 230.447C498.454 230.447 496.88 260.475 511.67 263.057L512.457 266.318C512.457 266.318 493.261 265.638 498.454 230.447Z" fill="url(#paint37_linear)"/>
<path opacity="0.3" d="M473.751 239.55C473.751 239.55 473.122 240.637 467.772 237.24C467.772 237.24 449.206 248.654 441.968 264.687C441.968 264.687 453.454 249.877 459.59 248.382C465.727 246.752 467.143 252.73 467.143 252.73C467.143 252.73 469.66 244.306 473.751 239.55Z" fill="url(#paint38_linear)"/>
<path opacity="0.5" d="M173.704 216.044C173.704 216.044 180.941 227.457 194.315 223.925C194.315 223.925 186.291 228.544 178.267 224.74C178.109 224.74 173.232 217.267 173.704 216.044Z" fill="url(#paint39_linear)"/>
<path opacity="0.5" d="M220.591 201.641C220.591 201.641 230.503 233.436 204.7 257.35C204.7 257.35 221.378 250.013 225.154 232.892C228.93 215.636 220.591 201.641 220.591 201.641Z" fill="url(#paint40_linear)"/>
<path opacity="0.5" d="M396.969 176.096C396.969 176.096 395.868 190.499 387.843 200.69C379.819 211.016 364.085 217.946 364.085 217.946C364.085 217.946 383.91 211.695 393.036 202.728C402.161 194.032 396.969 176.096 396.969 176.096Z" fill="url(#paint41_linear)"/>
<path opacity="0.5" d="M295.642 154.627C295.642 154.627 295.642 166.585 300.048 178.813C304.453 191.042 343.316 212.375 343.316 212.375C343.316 212.375 303.352 197.972 295.485 185.064C287.932 172.291 295.642 154.627 295.642 154.627Z" fill="url(#paint42_linear)"/>
<path opacity="0.5" d="M377.616 157.209C376.358 169.846 371.952 178.678 367.232 184.656C360.624 192.809 353.543 195.526 353.543 195.526C346.463 192.809 340.327 189.548 334.977 185.879C312.478 170.389 305.24 148.921 304.768 147.154C314.208 166.856 328.212 178.949 338.753 185.607C347.25 191.042 353.543 193.081 353.543 193.081V186.83C351.813 186.287 350.239 185.607 348.666 184.928C330.1 176.775 320.345 159.927 315.782 149.057C315.782 149.057 315.782 149.057 315.782 148.921C313.264 143.078 312.32 138.866 312.32 138.866H315.624L314.523 140.904V141.04C314.995 143.078 315.624 145.116 316.411 147.018V147.154C326.795 175.417 353.543 184.52 353.543 184.52C372.109 172.699 371.795 153.948 371.795 153.948V151.366L375.256 152.318L377.616 157.209Z" fill="url(#paint43_linear)"/>
<path opacity="0.3" d="M487.754 225.827C487.754 225.827 482.72 240.094 487.44 262.242C487.44 262.242 489.8 234.115 491.688 231.669C493.419 229.224 498.453 230.446 498.453 230.446C498.453 230.446 490.587 226.642 487.754 225.827Z" fill="url(#paint44_linear)"/>
<path opacity="0.5" d="M438.822 303.276C434.416 300.015 429.067 294.444 423.874 285.341C413.333 267.133 410.343 255.04 409.871 252.866L412.389 249.605L415.693 221.615L418.839 219.984C418.839 219.984 430.011 209.386 438.507 193.216C438.664 193.488 438.822 193.896 438.979 194.439C440.71 200.282 444.171 222.022 447.475 229.767C449.521 234.659 452.825 237.24 455.185 238.735C455.185 238.735 435.832 263.6 434.888 281.264C433.787 297.162 438.035 302.461 438.822 303.276Z" fill="url(#paint45_linear)"/>
<path opacity="0.5" d="M323.806 355.045C323.806 355.045 288.876 350.154 274.716 342.137C274.873 341.458 274.873 340.778 274.873 340.099C274.559 333.305 267.793 327.327 266.849 323.386C267.006 323.794 268.108 325.832 272.985 329.501C276.132 331.811 280.852 334.8 287.932 338.469C288.09 338.604 288.247 338.604 288.404 338.74C298.474 343.904 307.128 347.3 313.422 349.882C313.422 349.882 313.422 349.882 313.579 349.882C319.086 352.192 322.862 353.687 323.806 355.045C323.806 354.91 323.806 355.045 323.806 355.045Z" fill="url(#paint46_linear)"/>
<path opacity="0.5" d="M398.385 330.995C398.228 332.218 395.081 334.8 394.295 337.517C394.295 337.517 381.55 349.203 334.033 345.67C334.348 344.447 344.26 346.213 367.389 342.137C389.889 338.332 397.913 331.403 398.385 330.995Z" fill="url(#paint47_linear)"/>
<path opacity="0.5" d="M406.41 172.563L376.043 180.987L367.232 184.52H361.41H353.543L348.666 184.792L346.148 184.928L338.753 185.471L334.977 185.743L298.632 174.33L292.181 172.291L262.286 162.916C263.23 162.644 264.017 162.372 264.961 161.965C285.1 155.171 304.768 146.747 304.768 146.747L312.32 138.73H315.624C318.614 133.023 320.659 127.724 321.918 123.512L323.963 115.767C324.121 114.951 324.121 114.544 324.121 114.544L334.82 119.435L370.851 144.301C370.851 145.931 370.851 147.562 371.008 148.785L371.48 151.91C371.637 151.366 371.637 150.959 371.637 150.959L375.099 151.91L377.459 156.801C377.459 156.801 381.55 162.237 397.441 168.215C400.273 169.71 403.263 171.068 406.41 172.563Z" fill="#7A4AC0"/>
<path d="M383.28 148.649C383.28 148.649 369.12 151.366 353.543 144.844C337.967 138.322 324.907 119.164 323.963 114.272C323.177 109.516 329.942 96.8799 329.942 87.0968C329.942 77.3137 324.435 60.465 333.718 51.3613C343.001 42.2576 385.955 40.8988 399.959 52.5842C399.959 52.5842 404.207 61.9597 404.207 67.2589C404.207 68.4817 403.892 70.384 403.577 72.558C403.42 73.3733 403.263 74.1886 403.105 75.1397C401.847 81.5259 400.116 89.4067 400.903 92.8036C401.217 94.0265 401.689 95.1135 402.161 96.2005C403.892 99.5975 406.409 102.315 406.882 105.304C407.511 109.109 401.532 136.692 383.28 148.649Z" fill="url(#paint48_linear)"/>
<path d="M329.942 84.3802C329.942 84.3802 326.009 76.0917 316.411 75.9558C316.411 75.9558 310.747 77.8581 309.803 81.6626C309.803 81.6626 311.848 95.1144 314.208 101.501C316.568 107.751 325.379 106.936 325.379 106.936C325.379 106.936 332.932 96.7449 329.942 84.3802Z" fill="url(#paint49_linear)"/>
<path d="M367.074 111.962C367.074 111.962 370.379 111.69 371.637 112.642C373.053 113.593 378.088 117.805 384.539 118.892C390.99 120.115 395.238 115.359 396.654 115.087C398.07 114.816 399.487 116.446 399.487 116.446C399.487 116.446 398.857 114.544 395.553 113.593C395.553 113.593 394.137 118.077 384.854 116.446C375.571 114.951 371.637 111.419 371.637 111.419L371.165 110.739C371.323 110.875 368.648 111.283 367.074 111.962Z" fill="url(#paint50_linear)"/>
<path opacity="0.6" d="M353.386 70.3841L353.543 69.5688C353.543 69.5688 362.826 55.5735 381.078 55.1659C399.486 54.7583 403.577 64.6772 403.577 64.6772L407.039 60.1933L399.329 46.6057L345.519 45.7904L332.46 54.8941L330.729 77.3138L336.55 106.799L350.711 113.321L354.645 110.196C353.228 100.277 344.575 91.309 344.575 91.309L350.711 87.6404C350.711 87.6404 366.602 94.2983 375.885 92.2602C375.885 92.2602 382.808 74.7321 382.494 61.8238C382.651 61.9597 358.893 64.949 353.386 70.3841Z" fill="url(#paint51_linear)"/>
<path d="M352.599 71.4709C352.599 71.4709 353.543 66.4435 363.456 64.4054C374.47 62.0955 383.438 60.1932 383.438 60.1932C383.438 60.1932 381.55 65.7642 377.774 67.8023C377.774 67.8023 366.131 67.3947 360.152 68.6176C354.33 69.7046 352.599 71.4709 352.599 71.4709Z" fill="#38368E"/>
<path d="M403.577 64.6771C403.577 64.6771 397.913 68.3458 394.137 77.3136C394.137 77.3136 397.756 73.2373 401.217 73.2373C403.577 73.2373 403.105 75.2755 403.105 75.2755C403.105 75.2755 405.466 69.8404 403.577 64.6771Z" fill="#38368E"/>
<path d="M356.218 85.738C356.218 85.738 356.847 75.0038 368.963 72.2863C368.963 72.2863 373.211 77.1778 373.683 82.6129C373.683 82.6129 367.389 81.6617 356.218 85.738Z" fill="url(#paint52_linear)"/>
<path d="M390.833 89.9501C390.833 89.9501 391.777 81.3899 397.441 78.2648C397.441 78.2648 401.375 80.7105 400.903 87.9119C400.903 87.9119 397.599 86.8249 390.833 89.9501Z" fill="url(#paint53_linear)"/>
<path d="M356.218 85.738C356.218 85.738 360.152 89.9502 371.165 90.7655C371.165 90.7655 373.211 88.0479 373.053 82.6128C373.053 82.6128 362.984 81.7975 356.218 85.738Z" fill="#FFEBED"/>
<path d="M390.833 89.9503V91.1731C390.833 91.1731 392.564 94.1624 398.543 94.7059C398.543 94.7059 400.431 92.1243 400.588 87.7762C400.745 87.9121 396.812 87.0969 390.833 89.9503Z" fill="#FFEBED"/>
<path d="M368.018 82.3411C368.018 82.3411 365.186 85.3304 365.501 89.8143C365.501 89.8143 369.12 90.4936 371.165 90.6295C371.165 90.6295 373.525 87.7761 373.053 82.477C373.053 82.6128 369.907 81.9335 368.018 82.3411Z" fill="#7F9EC9"/>
<path d="M396.654 88.0479C396.654 88.0479 395.081 89.5425 394.766 94.0264C394.766 94.0264 396.969 94.8417 398.7 94.8417C398.7 94.8417 400.903 92.1241 400.745 87.912C400.745 87.912 399.172 87.3685 396.654 88.0479Z" fill="#7F9EC9"/>
<path d="M367.075 90.222C367.075 90.222 366.131 84.5152 369.907 82.2053L373.054 82.613C373.054 82.613 374.155 87.2327 371.165 90.7655C371.165 90.7655 368.019 90.3579 367.075 90.222Z" fill="#38368E"/>
<path d="M398.07 87.7762C398.07 87.7762 396.654 90.3579 396.025 94.2983C396.025 94.2983 397.126 94.7059 398.7 94.7059C398.7 94.7059 400.903 92.396 400.745 87.7762C400.745 87.9121 399.172 87.5045 398.07 87.7762Z" fill="#38368E"/>
<path d="M356.218 85.7379C356.218 85.7379 363.456 82.0692 376.043 84.1074L373.683 82.6128C373.683 82.6128 364.872 80.3028 356.218 85.7379Z" fill="#131163"/>
<path d="M390.833 89.9502C390.833 89.9502 396.654 87.2326 403.577 88.7273L400.745 86.9609C400.745 86.9609 396.182 86.2815 390.833 89.9502Z" fill="#131163"/>
<path d="M364.242 85.7382C364.242 85.7382 366.288 85.3306 368.019 86.9609C368.019 86.9609 365.501 87.5044 364.242 85.7382Z" fill="white"/>
<path d="M393.508 90.7655C393.508 90.7655 396.654 90.222 397.756 91.4449C397.756 91.4449 396.025 92.3961 393.508 90.7655Z" fill="white"/>
<path d="M357.005 86.4174C357.005 86.4174 362.669 91.3089 371.795 92.3959L371.952 89.5425L371.165 90.7654C371.165 90.7654 362.512 90.2219 357.005 86.4174Z" fill="#C6659C"/>
<path d="M390.833 91.173C390.833 91.173 391.777 94.2982 399.172 95.657L398.857 94.1623L398.385 94.7058C398.7 94.8417 393.35 94.1623 390.833 91.173Z" fill="#C6659C"/>
<path d="M376.043 103.81C376.043 103.81 378.875 103.266 383.91 103.81C388.945 104.353 394.609 105.576 397.756 103.81C397.756 103.81 393.665 107.342 390.046 107.886C386.427 108.429 381.078 105.712 381.078 105.712H378.718C378.56 105.712 376.83 104.897 376.043 103.81Z" fill="#CB5F7D"/>
<path d="M378.875 105.712C378.875 105.712 380.134 105.032 381.235 105.168C382.336 105.304 383.28 106.663 383.28 106.663C383.28 106.663 381.078 105.712 378.875 105.712Z" fill="#9F4A8B"/>
<path d="M397.756 103.81C399.014 102.723 392.249 92.1243 388.945 91.7166C385.641 91.309 382.651 103.538 382.651 103.538C382.651 103.538 387.214 104.081 391.619 104.625C396.025 105.033 397.756 103.81 397.756 103.81Z" fill="#FFBCAF"/>
<path opacity="0.6" d="M402.633 70.5199C400.745 70.2481 394.137 77.1778 394.137 77.1778C394.137 77.1778 390.046 88.3197 390.833 91.5807C391.619 94.8418 401.847 96.6082 401.847 96.6082L402.319 96.0646C401.847 94.9776 401.375 93.8906 401.06 92.6677C400.273 89.2708 402.004 81.39 403.263 75.0038C403.263 75.0038 403.735 73.645 403.735 72.4221C403.735 71.6069 403.577 70.6558 402.633 70.5199Z" fill="url(#paint54_linear)"/>
<path d="M402.319 115.902C400.273 112.098 401.532 110.196 383.281 108.158C357.477 105.304 355.274 111.962 351.026 111.011C350.868 111.011 350.711 110.875 350.554 110.875C345.834 109.245 334.662 99.8691 334.348 87.0967C334.033 73.7808 344.418 64.4053 344.418 64.4053C340.641 61.6878 339.225 53.8069 343.159 50.5459C347.25 47.149 354.015 47.9642 370.851 49.4589C387.686 50.9535 387.686 50.1383 387.686 50.1383C393.036 51.3612 396.182 55.7092 396.969 57.068C397.126 57.3397 397.284 57.4756 397.284 57.4756L399.329 55.8451C404.994 62.9106 403.892 70.6556 403.892 70.6556C403.892 70.6556 413.175 54.4863 412.074 52.1764C410.186 47.9642 404.836 41.7139 404.521 41.3063C404.521 41.3063 402.948 28.9415 398.543 28.9415C394.137 28.9415 374.942 32.6102 374.942 32.6102C376.987 28.398 376.672 23.5065 376.672 23.5065C376.672 23.5065 376.672 23.5065 376.515 23.5065C370.221 28.2621 364.242 28.8057 355.589 32.3384C351.183 34.1048 349.138 35.7354 347.564 37.3659L346.935 37.9094L346.306 38.5888C345.676 39.2681 345.047 39.9475 344.418 40.6269C344.418 40.6269 344.418 40.7628 344.26 40.7628C343.631 41.4422 342.687 42.1215 341.743 42.8009C336.078 46.7414 323.649 49.4589 322.075 53.6711C320.659 57.8832 323.963 63.59 325.694 69.5686C327.425 75.5472 326.638 80.7105 326.638 80.7105C326.638 80.7105 332.617 87.3684 330.572 97.0157C328.841 105.712 325.065 107.071 325.065 107.071C322.39 111.826 323.649 116.31 323.649 116.31C329.156 135.197 351.97 146.475 351.97 146.475C372.267 152.997 385.641 150.143 385.641 150.143C400.431 141.855 405.466 114.408 405.623 113.049C405.623 113.185 402.948 116.854 402.319 115.902ZM393.193 133.295C389.574 132.751 388.787 125.006 387.686 123.919C386.427 122.968 379.976 123.376 379.976 123.376C379.976 123.376 373.997 129.218 371.637 129.354C369.277 129.49 356.533 125.006 359.208 118.348C361.882 111.69 371.637 110.739 371.637 110.739C371.637 110.739 376.672 114.408 384.067 114.815C391.462 115.223 394.294 114 395.081 113.728C396.025 113.321 400.745 115.223 400.588 121.066C400.745 125.278 396.812 133.838 393.193 133.295Z" fill="url(#paint55_linear)"/>
<path d="M392.406 94.0265C392.406 94.0265 398.857 100.956 398.228 103.538C397.598 106.391 390.046 107.886 390.046 107.886C390.046 107.886 396.025 106.119 397.284 103.538C397.284 103.538 395.71 98.2387 392.406 94.0265Z" fill="#D2726C"/>
<path opacity="0.6" d="M404.049 70.384C404.049 70.384 405.151 62.6391 399.487 55.5735C404.049 48.5079 404.679 41.0347 404.679 41.0347C406.252 44.2957 407.039 50.6819 407.039 50.6819L412.231 51.9048C413.175 54.2147 404.049 70.384 404.049 70.384Z" fill="url(#paint56_linear)"/>
<path opacity="0.6" d="M396.969 56.7963C396.025 55.4375 393.036 51.0895 387.686 49.8666C387.686 49.8666 387.686 50.8177 370.851 49.1872C354.015 47.6925 347.092 46.8773 343.159 50.2742C339.068 53.6711 340.641 61.4161 344.417 64.1336C344.417 64.1336 334.19 73.5091 334.348 86.825C334.662 99.5974 345.833 109.109 350.554 110.603L350.396 111.962C350.396 111.962 351.183 141.176 359.522 143.486C367.704 145.795 384.854 144.573 386.427 145.931C388.001 147.29 386.27 149.464 386.113 149.736C386.113 149.736 372.739 152.589 352.442 146.067C352.442 146.067 329.627 134.789 324.121 115.903C324.121 115.903 322.862 111.419 325.537 106.663C325.537 106.663 329.313 105.304 331.044 96.6081C332.932 86.9609 327.11 80.3029 327.11 80.3029C327.11 80.3029 327.897 75.1396 326.166 69.1611C324.435 63.1825 320.974 57.4757 322.547 53.2635C332.145 54.6223 338.281 50.2742 338.281 50.2742C338.281 50.2742 340.012 48.2361 347.407 47.2849C354.802 46.1979 384.382 48.7796 384.382 48.7796C384.382 48.7796 381.392 46.6055 375.099 45.2468C369.12 43.888 348.98 45.5185 346.778 45.6544C349.138 45.2468 371.952 41.8499 374.627 42.5292C377.459 43.2086 387.371 47.149 387.371 47.149C386.427 43.2086 377.616 33.6973 377.616 33.6973C377.616 33.6973 365.029 33.8331 356.847 35.3278C349.61 36.6865 345.519 39.54 344.732 40.0835L346.62 38.0453L347.25 37.3659L347.879 36.8224L350.711 36.4148L365.029 31.3874C369.907 29.2133 376.043 23.6424 376.829 22.963H376.987C376.987 22.963 377.302 27.8546 375.256 32.0667C387.371 30.708 391.462 31.3874 391.462 31.3874C396.812 38.5888 396.969 56.7963 396.969 56.7963Z" fill="url(#paint57_linear)"/>
<path opacity="0.5" d="M352.285 146.203C352.285 146.203 359.68 144.708 371.008 145.116C382.179 145.524 388.63 145.524 385.955 149.872C385.798 149.872 371.795 152.725 352.285 146.203Z" fill="url(#paint58_linear)"/>
<path d="M391.305 31.795C391.305 31.795 398.07 29.4851 400.903 29.8927C400.903 29.8927 399.801 28.6698 398.7 28.3981C397.598 28.1263 375.099 32.4744 375.099 32.4744C375.099 32.4744 389.102 30.9797 391.305 31.795Z" fill="url(#paint59_linear)"/>
<path d="M377.459 33.9691C377.459 33.9691 376.987 40.3552 374.47 42.6651L346.62 45.7903L338.439 44.5674C338.439 44.5674 341.586 43.3445 345.047 39.9476C348.666 36.4148 366.76 33.0179 377.459 33.9691Z" fill="url(#paint60_linear)"/>
<path d="M404.522 41.0347C404.522 41.0347 406.724 47.4209 406.882 50.6819L412.074 51.9048C412.231 51.9048 410.658 47.1491 404.522 41.0347Z" fill="url(#paint61_linear)"/>
<path opacity="0.8" d="M328.684 95.7929C328.684 95.7929 326.795 87.6403 321.918 83.6998C317.198 79.6235 311.691 80.9823 311.691 80.9823C311.691 80.9823 313.107 96.0646 314.68 99.7333C316.254 103.402 318.614 104.353 318.614 104.353C318.614 104.353 315.31 101.771 314.838 96.8799C314.366 91.8525 314.208 84.9227 315.467 84.1075C316.726 83.2922 321.918 86.5533 321.918 86.5533C321.918 86.5533 320.344 88.3197 319.4 92.6677C318.456 97.1517 322.075 100.277 323.334 100.277C324.75 100.277 323.334 95.1135 323.491 93.7547C323.649 91.9883 326.638 92.396 328.684 95.7929Z" fill="url(#paint62_linear)"/>
<path opacity="0.8" d="M323.963 85.738C323.963 85.738 318.771 88.7273 319.243 94.8417C319.873 100.956 323.806 100.684 323.806 99.3256C323.806 98.1028 323.019 94.7059 323.491 92.9395C323.963 91.0372 327.425 91.8525 327.425 91.8525C327.425 91.8525 325.065 86.9609 323.963 85.738Z" fill="url(#paint63_linear)"/>
<path d="M405.938 112.913C405.938 112.913 399.487 138.594 385.955 150.008C385.798 149.872 401.217 144.708 405.938 112.913Z" fill="#34C7FF"/>
<path d="M398.7 28.3982C398.7 28.3982 402.161 30.7081 402.791 38.7248C403.42 46.7415 399.487 55.5735 399.487 55.5735C399.487 55.5735 404.679 48.9155 405.151 41.5782C405.466 34.3768 401.375 29.3493 398.7 28.3982Z" fill="#34C7FF"/>
<path d="M357.005 45.1109C357.005 45.1109 364.872 47.4208 373.683 48.1002C382.494 48.7795 384.225 48.9154 384.225 48.9154C384.225 48.9154 380.763 45.9261 373.211 45.1109C365.816 44.2956 357.005 45.1109 357.005 45.1109Z" fill="url(#paint64_linear)"/>
<path d="M395.396 113.457C395.396 113.457 399.172 113.457 400.745 117.533C402.004 120.794 402.319 123.648 402.319 123.648L403.735 119.164C403.735 119.164 402.004 113.457 400.116 112.098C398.857 111.147 396.497 110.196 395.396 110.468V113.457Z" fill="url(#paint65_linear)"/>
<path d="M385.169 109.245L385.798 114.136C385.798 114.136 390.361 114.408 393.508 113.321L393.98 110.332C394.137 110.468 388.158 109.109 385.169 109.245Z" fill="url(#paint66_linear)"/>
<path d="M406.41 172.563C406.41 172.563 433.472 189.684 437.091 195.526C440.553 201.369 441.969 219.848 446.846 227.865C446.846 227.865 443.542 214.821 441.339 204.63C438.979 194.439 439.608 194.303 438.35 191.722C436.934 189.14 416.637 176.911 406.41 172.563Z" fill="#34C7FF"/>
<path d="M401.532 267.677C401.532 267.677 388.473 315.913 389.102 319.174C389.731 322.435 398.228 329.093 398.543 330.859C398.543 330.859 392.092 338.333 392.406 339.963C392.721 341.594 403.735 352.056 403.42 355.317C403.263 356.268 396.182 366.459 396.182 366.459C396.182 366.459 404.207 356.404 404.679 354.909C405.151 353.279 394.766 339.963 394.452 338.604C393.665 335.072 399.644 332.49 399.801 330.18C399.959 327.87 391.777 322.163 391.777 318.359C391.62 314.69 401.532 267.677 401.532 267.677Z" fill="#34C7FF"/>
<path d="M404.207 382.764C404.207 382.764 432.371 437.93 442.126 493.232C441.968 493.232 440.395 439.289 404.207 382.764Z" fill="#34C7FF"/>
<path d="M225.154 161.421C225.154 161.421 217.916 160.062 214.769 154.627C211.78 149.057 213.668 141.176 213.668 141.176C213.668 141.176 219.332 150.687 222.164 153.948C225.154 157.073 225.94 160.742 225.154 161.421Z" fill="#FFBCAF"/>
<path opacity="0.6" d="M450.623 132.615L455.657 257.35C455.815 262.242 460.535 266.182 466.357 266.182H715.111C720.933 266.182 725.653 262.242 725.81 257.214L729.272 130.985C729.429 125.822 724.552 121.474 718.573 121.609L461.164 123.104C455.185 123.104 450.308 127.452 450.623 132.615Z" fill="#36D1F7"/>
<path d="M715.111 266.59H466.199C460.22 266.59 455.343 262.514 455.185 257.35L450.15 132.616C449.993 130.034 451.094 127.588 453.14 125.686C455.185 123.784 458.017 122.832 461.007 122.697L718.415 121.202C721.405 121.202 724.237 122.153 726.282 124.055C728.328 125.958 729.586 128.403 729.429 130.985L725.968 257.214C725.968 262.514 721.09 266.59 715.111 266.59ZM718.573 122.017L461.164 123.512C458.332 123.512 455.815 124.463 453.769 126.229C451.881 127.996 450.78 130.306 450.937 132.616L455.972 257.35C456.129 262.106 460.692 265.91 466.199 265.91H714.954C720.461 265.91 725.024 261.97 725.181 257.214L728.642 130.985C728.642 128.539 727.698 126.229 725.653 124.599C723.922 122.968 721.247 122.017 718.573 122.017Z" fill="#744CA2"/>
<path opacity="0.6" d="M450.937 139.002H728.957L729.429 132.48C729.901 126.637 724.394 121.745 717.629 121.881L460.377 123.648C455.028 123.648 450.78 127.452 450.78 132.072L450.937 139.002Z" fill="url(#paint67_linear)"/>
<path opacity="0.3" d="M464.94 149.057V221.207H550.061V148.649L464.94 149.057Z" fill="url(#paint68_linear)"/>
<path opacity="0.3" d="M669.168 153.948H632.193V185.879H669.168V153.948Z" fill="url(#paint69_linear)"/>
<path opacity="0.3" d="M712.909 153.948H675.933V185.879H712.909V153.948Z" fill="url(#paint70_linear)"/>
<path opacity="0.3" d="M624.798 153.948H587.823V185.879H624.798V153.948Z" fill="url(#paint71_linear)"/>
<path d="M712.909 204.494H618.19V212.103H712.909V204.494Z" fill="#D1D4FB"/>
<path d="M712.909 216.179H594.589V218.49H712.909V216.179Z" fill="#D1D4FB"/>
<path d="M618.347 189.956H595.69V192.265H618.347V189.956Z" fill="#D1D4FB"/>
<path d="M662.088 189.956H639.431V192.265H662.088V189.956Z" fill="#D1D4FB"/>
<path d="M705.671 189.956H683.014V192.265H705.671V189.956Z" fill="#D1D4FB"/>
<path d="M625.899 219.984H587.823V222.294H625.899V219.984Z" fill="#D1D4FB"/>
<path d="M712.909 223.789H594.589V226.099H712.909V223.789Z" fill="#D1D4FB"/>
<path d="M712.908 227.593H587.823V229.903H712.908V227.593Z" fill="#D1D4FB"/>
<path d="M712.908 231.398H587.823V233.708H712.908V231.398Z" fill="#D1D4FB"/>
<path d="M712.909 246.752H594.589V249.062H712.909V246.752Z" fill="#D1D4FB"/>
<path d="M712.908 250.556H587.823V252.866H712.908V250.556Z" fill="#D1D4FB"/>
<path d="M712.908 254.361H587.823V256.671H712.908V254.361Z" fill="#D1D4FB"/>
<path d="M707.873 235.202H587.823V237.512H707.873V235.202Z" fill="#D1D4FB"/>
<path d="M712.909 239.007H594.589V241.317H712.909V239.007Z" fill="#D1D4FB"/>
<path d="M689.15 242.811H587.823V245.121H689.15V242.811Z" fill="#D1D4FB"/>
<path d="M488.699 206.804C475.325 206.804 464.468 197.429 464.468 185.879C464.468 174.33 475.325 164.954 488.699 164.954C502.073 164.954 512.929 174.33 512.929 185.879C512.929 197.429 502.073 206.804 488.699 206.804ZM488.699 166.313C476.269 166.313 466.042 175.145 466.042 185.879C466.042 196.613 476.269 205.445 488.699 205.445C501.129 205.445 511.356 196.613 511.356 185.879C511.356 175.145 501.286 166.313 488.699 166.313Z" fill="#E0FFFF"/>
<path d="M488.699 197.293C495.998 197.293 501.915 192.183 501.915 185.879C501.915 179.576 495.998 174.466 488.699 174.466C481.399 174.466 475.482 179.576 475.482 185.879C475.482 192.183 481.399 197.293 488.699 197.293Z" fill="white"/>
<path d="M550.061 169.574C536.688 169.574 525.831 160.198 525.831 148.649C525.831 137.099 536.688 127.724 550.061 127.724C563.435 127.724 574.292 137.099 574.292 148.649C574.135 160.198 563.278 169.574 550.061 169.574ZM550.061 129.083C537.632 129.083 527.404 137.915 527.404 148.649C527.404 159.383 537.632 168.215 550.061 168.215C562.491 168.215 572.718 159.383 572.718 148.649C572.561 137.915 562.491 129.083 550.061 129.083Z" fill="#E0FFFF"/>
<path d="M562.21 150.289C563.277 144.433 558.645 138.939 551.864 138.018C545.083 137.097 538.721 141.097 537.654 146.953C536.587 152.809 541.219 158.303 548.001 159.225C554.782 160.146 561.144 156.145 562.21 150.289Z" fill="white"/>
<path d="M460.692 129.219L462.423 126.909L472.021 134.11L470.605 135.877L460.692 129.219Z" fill="white"/>
<path d="M472.178 129.219L470.447 126.909L460.849 134.11L462.423 135.877L472.178 129.219Z" fill="white"/>
<path d="M722.034 128.403H636.441V132.072H722.034V128.403Z" fill="white"/>
<path d="M185.661 74.8679V106.935L230.189 107.342L230.818 73.9167L185.661 74.8679Z" fill="url(#paint72_linear)"/>
<path d="M230.818 73.9169L233.65 78.129L232.234 107.342H230.189L230.818 73.9169Z" fill="url(#paint73_linear)"/>
<path d="M193.686 85.738L197.777 80.5747L219.962 96.744L216.657 100.549L193.686 85.738Z" fill="white"/>
<path d="M220.591 85.738L216.5 80.5747L194.315 96.744L197.619 100.549L220.591 85.738Z" fill="white"/>
<path opacity="0.81" d="M289.506 452.74H137.358C130.592 452.74 125.086 448.121 124.928 442.278L122.096 334.528C121.939 328.549 127.603 323.522 134.526 323.522H292.968C300.048 323.522 305.555 328.549 305.397 334.528L301.936 442.278C301.779 448.121 296.272 452.74 289.506 452.74Z" fill="url(#paint74_linear)"/>
<path d="M289.506 453.012H137.358C130.435 453.012 124.614 448.121 124.456 442.142L121.624 334.392C121.467 331.403 122.883 328.549 125.243 326.375C127.603 324.201 130.907 322.979 134.369 322.979H292.81C296.272 322.979 299.576 324.201 302.093 326.375C304.611 328.549 305.869 331.403 305.712 334.392L302.251 442.142C302.093 448.257 296.429 453.012 289.506 453.012ZM134.526 323.794C131.222 323.794 128.232 324.881 125.872 326.919C123.512 328.957 122.411 331.675 122.411 334.392L125.243 442.142C125.4 447.713 130.75 452.333 137.358 452.333H289.506C296.114 452.333 301.464 447.849 301.621 442.142L305.083 334.392C305.24 331.539 303.981 328.821 301.621 326.783C299.261 324.745 296.272 323.658 292.967 323.658H134.526V323.794Z" fill="#473DA2"/>
<path d="M242.933 345.534H163.004V348.523H242.933V345.534Z" fill="white"/>
<path d="M202.969 352.735H163.004V355.725H202.969V352.735Z" fill="white"/>
<path d="M202.969 358.714H163.004V361.703H202.969V358.714Z" fill="white"/>
<path d="M239.314 358.714H207.532V361.703H239.314V358.714Z" fill="white"/>
<path d="M227.514 364.693H163.004V367.682H227.514V364.693Z" fill="white"/>
<path d="M185.976 370.671H163.004V373.661H185.976V370.671Z" fill="white"/>
<path d="M230.346 388.743H190.696V391.732H230.346V388.743Z" fill="white"/>
<path d="M234.909 376.65H163.004V379.639H234.909V376.65Z" fill="white"/>
<path d="M218.388 382.764H163.004V385.753H218.388V382.764Z" fill="white"/>
<path d="M188.966 388.743H163.004V391.732H188.966V388.743Z" fill="white"/>
<path d="M202.969 394.721H163.004V397.71H202.969V394.721Z" fill="white"/>
<path d="M174.49 400.7H163.004V403.689H174.49V400.7Z" fill="white"/>
<path d="M220.906 400.7H179.21V403.689H220.906V400.7Z" fill="white"/>
<path d="M230.346 406.542H190.696V409.532H230.346V406.542Z" fill="white"/>
<path d="M188.966 406.542H163.004V409.532H188.966V406.542Z" fill="white"/>
<path d="M202.969 412.521H163.004V415.51H202.969V412.521Z" fill="white"/>
<path d="M174.49 418.635H163.004V421.625H174.49V418.635Z" fill="white"/>
<path d="M220.906 418.635H179.21V421.625H220.906V418.635Z" fill="white"/>
<path d="M697.646 97.5594C697.646 100.956 694.499 103.674 690.566 103.674C686.632 103.674 683.486 100.956 683.486 97.5594C683.486 94.1625 686.632 91.4449 690.566 91.4449C694.499 91.5808 697.646 94.2984 697.646 97.5594Z" fill="#FFC20A"/>
<path d="M38.5483 238.463C38.5483 242.676 34.6148 246.073 29.7372 246.073C24.8597 246.073 20.9261 242.676 20.9261 238.463C20.9261 234.251 24.8597 230.854 29.7372 230.854C34.6148 230.854 38.5483 234.251 38.5483 238.463Z" fill="url(#paint75_linear)"/>
<path d="M711.335 103.674C715.245 103.674 718.415 100.936 718.415 97.5594C718.415 94.1825 715.245 91.4449 711.335 91.4449C707.425 91.4449 704.255 94.1825 704.255 97.5594C704.255 100.936 707.425 103.674 711.335 103.674Z" fill="#FFC20A"/>
<path d="M257.881 143.757C260.661 143.757 262.915 141.811 262.915 139.409C262.915 137.008 260.661 135.061 257.881 135.061C255.1 135.061 252.846 137.008 252.846 139.409C252.846 141.811 255.1 143.757 257.881 143.757Z" fill="url(#paint76_linear)"/>
<path d="M590.97 333.169C593.75 333.169 596.005 331.223 596.005 328.821C596.005 326.42 593.75 324.473 590.97 324.473C588.189 324.473 585.935 326.42 585.935 328.821C585.935 331.223 588.189 333.169 590.97 333.169Z" fill="url(#paint77_linear)"/>
<path d="M73.95 375.427C76.3831 375.427 78.3555 373.723 78.3555 371.622C78.3555 369.521 76.3831 367.818 73.95 367.818C71.5169 367.818 69.5445 369.521 69.5445 371.622C69.5445 373.723 71.5169 375.427 73.95 375.427Z" fill="url(#paint78_linear)"/>
<path opacity="0.73" d="M149.788 333.984H73.0057C66.8694 333.984 61.8345 329.772 61.5199 324.473L59.7891 280.857C59.6318 275.286 64.824 270.666 71.275 270.666H151.361C157.812 270.666 163.004 275.286 162.847 280.857L161.274 324.473C161.116 329.636 155.924 333.984 149.788 333.984Z" fill="url(#paint79_linear)"/>
<path d="M149.788 334.256H73.0057C66.5548 334.256 61.3626 329.908 61.2052 324.337L59.4745 280.721C59.3172 277.868 60.5759 275.286 62.7786 273.248C64.9814 271.21 68.1282 270.123 71.275 270.123H151.361C154.665 270.123 157.655 271.21 159.857 273.248C162.06 275.286 163.319 277.868 163.162 280.721L161.588 324.337C161.431 329.908 156.239 334.256 149.788 334.256ZM71.275 270.938C68.2855 270.938 65.4534 272.025 63.2507 273.791C61.0479 275.558 60.1039 278.139 60.1039 280.721L61.8346 324.337C61.9919 329.501 66.8695 333.577 72.8484 333.577H149.63C155.609 333.577 160.487 329.501 160.644 324.337L162.218 280.721C162.375 278.139 161.274 275.693 159.071 273.791C157.025 271.889 154.193 270.938 151.204 270.938H71.275Z" fill="#953DA2"/>
<path d="M93.46 286.156L74.5792 305.179L93.7747 319.31V311.973L82.6035 303.684L92.988 293.493L93.46 286.156Z" fill="white"/>
<path d="M126.816 287.107L145.697 305.994L126.344 320.125V312.788L137.515 304.499L125.085 293.222L126.816 287.107Z" fill="white"/>
<path d="M97.5508 319.31L114.072 287.922H121.781L103.215 319.31H97.5508Z" fill="white"/>
<path opacity="0.73" d="M666.336 423.663H570.358C562.648 423.663 556.355 418.364 556.04 411.706L553.837 357.083C553.523 350.154 560.131 344.311 568.155 344.311H668.224C676.248 344.311 682.856 350.154 682.542 357.083L680.653 411.706C680.496 418.364 674.045 423.663 666.336 423.663Z" fill="url(#paint80_linear)"/>
<path d="M666.335 424.071H570.358C562.334 424.071 555.883 418.635 555.568 411.842L553.365 357.219C553.208 353.687 554.624 350.425 557.456 347.98C560.288 345.534 564.064 344.039 567.998 344.039H668.224C672.314 344.039 675.933 345.398 678.765 347.844C681.597 350.29 683.014 353.687 682.856 357.083L680.968 411.706C680.811 418.635 674.36 424.071 666.335 424.071ZM568.155 344.719C564.379 344.719 560.76 346.077 558.086 348.387C555.411 350.697 553.995 353.822 554.152 357.219L556.355 411.842C556.669 418.364 562.806 423.527 570.358 423.527H666.335C673.888 423.527 680.024 418.364 680.339 411.842L682.227 357.219C682.384 353.958 680.968 350.833 678.293 348.523C675.619 346.213 672.157 344.855 668.224 344.855H568.155V344.719Z" fill="#953DA2"/>
<path d="M660.986 353.143H573.033V398.254H660.986V353.143Z" fill="#D1D4FB"/>
<path d="M609.378 364.421V387.112L631.721 374.612L609.378 364.421Z" fill="white"/>
<path d="M660.986 406.542H573.033V410.619H660.986V406.542Z" fill="#D1D4FB"/>
<path d="M595.847 406.542H573.033V410.619H595.847V406.542Z" fill="white"/>
<path fill-rule="evenodd" clip-rule="evenodd" d="M508.681 338.876L504.118 350.154C506.635 343.904 510.254 339.963 508.681 338.876ZM504.118 350.29L499.555 361.567C500.656 361.296 501.6 356.54 504.118 350.29ZM508.681 338.876L504.118 350.154C506.635 343.904 510.254 339.963 508.681 338.876ZM504.118 350.29L499.555 361.567C500.656 361.296 501.6 356.54 504.118 350.29ZM517.335 360.073L521.74 362.247L526.618 350.833L521.425 350.154C521.583 349.746 521.583 349.339 521.74 348.931C522.055 347.029 522.212 345.126 522.212 343.224L527.562 340.235L525.044 330.18L519.852 334.392C519.065 333.169 518.279 331.946 517.177 331.131C516.862 330.859 516.548 330.588 516.233 330.316L519.38 324.066L511.041 321.756L508.995 328.142C507.107 328.142 505.219 328.549 503.331 329.229L502.387 323.25L493.104 329.365L495.307 334.664C493.576 336.294 492.16 338.197 490.744 340.371L486.338 338.197L481.461 349.61L486.653 350.29C486.181 352.735 485.866 355.045 486.024 357.219L480.674 360.209L483.192 370.264L488.384 366.051C489.328 367.682 490.429 369.041 492.003 370.128L488.856 376.378L497.195 379.231L498.454 375.155L499.398 372.438C501.286 372.438 503.174 372.03 505.062 371.351L506.006 377.329L515.289 371.215L513.086 365.916C514.345 364.557 515.604 363.198 516.705 361.567C516.705 361.024 517.02 360.48 517.335 360.073ZM504.118 350.29C501.6 356.54 504.118 363.062 499.555 361.567C494.992 360.209 493.261 353.958 495.779 347.708C498.296 341.458 504.118 337.517 508.681 338.876C513.244 340.235 506.635 343.904 504.118 350.29ZM508.681 338.876L504.118 350.154C506.635 343.904 510.254 339.963 508.681 338.876ZM504.118 350.29L499.555 361.567C500.656 361.296 501.6 356.54 504.118 350.29Z" fill="url(#paint81_linear)"/>
<path fill-rule="evenodd" clip-rule="evenodd" d="M521.74 362.247L526.618 350.833L521.74 348.795L520.953 348.523L521.425 342.273L526.932 339.963L525.202 330.316L513.401 326.919L515.604 331.403L519.695 324.066L511.356 321.756L507.894 320.805L499.555 317.951L497.982 322.843L490.744 319.853L481.461 325.968L484.293 332.49L475.639 353.279L471.391 366.731L479.573 367.546L476.898 372.845L485.237 375.699L497.038 379.095L495.15 375.834L493.891 373.796L498.296 375.019L505.849 377.193L515.132 371.079L509.468 365.236L516.705 361.432L521.74 362.247ZM495.779 347.708C498.296 341.458 504.118 337.517 508.681 338.876L504.118 350.154L499.555 361.432C494.835 360.209 493.104 353.958 495.779 347.708Z" fill="url(#paint82_linear)"/>
<path fill-rule="evenodd" clip-rule="evenodd" d="M509.939 358.85L514.817 347.436L509.625 346.757C510.097 344.311 510.411 342.001 510.254 339.827L515.604 336.838L513.086 326.783L507.894 330.995C506.95 329.365 505.849 328.006 504.432 326.919L507.579 320.669L499.24 317.815L497.038 324.609C495.149 324.609 493.261 325.017 491.373 325.696L490.429 319.717L481.146 325.832L483.349 331.131C481.618 332.762 480.202 334.664 478.786 336.838L474.381 334.664L469.503 346.077L474.695 346.757C474.223 349.203 473.909 351.512 474.066 353.687L468.716 356.676L471.234 366.731L476.426 362.518C477.37 364.149 478.471 365.508 479.887 366.595L476.741 372.845L485.08 375.698L487.282 368.905C489.171 368.905 491.059 368.497 492.947 367.818L493.891 373.796L503.174 367.682L500.971 362.383C502.702 360.752 504.118 358.85 505.534 356.676L509.939 358.85ZM487.597 358.17C483.034 356.812 481.304 350.561 483.821 344.311C486.338 338.061 492.16 334.12 496.723 335.479C501.286 336.838 503.016 343.088 500.499 349.338C497.982 355.725 492.16 359.665 487.597 358.17Z" fill="url(#paint83_linear)"/>
<path opacity="0.5" fill-rule="evenodd" clip-rule="evenodd" d="M527.561 340.371L515.604 336.974L510.254 339.963L522.055 343.224L527.561 340.371Z" fill="#601734"/>
<path fill-rule="evenodd" clip-rule="evenodd" d="M514.974 371.079L503.016 367.682L500.971 362.383L512.772 365.78L514.974 371.079Z" fill="#B3D9FF"/>
<path opacity="0.5" fill-rule="evenodd" clip-rule="evenodd" d="M504.433 327.191L511.041 328.821L513.244 326.919L517.492 328.142L519.537 324.201L507.579 320.804L504.433 327.191Z" fill="#601734"/>
<path opacity="0.5" fill-rule="evenodd" clip-rule="evenodd" d="M487.125 368.905L493.419 371.079L492.947 367.682C492.947 367.818 489.485 369.312 487.125 368.905Z" fill="#601734"/>
<path opacity="0.5" fill-rule="evenodd" clip-rule="evenodd" d="M488.069 338.197L498.611 342.952C498.611 342.952 500.184 341.186 501.286 340.507C501.286 340.507 498.611 330.588 488.069 338.197Z" fill="#601734"/>
<path d="M247.811 0L257.881 17.3922L251.115 20.1097L241.674 4.0763L247.811 0Z" fill="white"/>
<path d="M20.4542 406.678L29.8946 415.51L33.5135 411.842L24.7024 403.553L20.4542 406.678Z" fill="white"/>
<path d="M495.307 106.527L485.866 111.419L482.09 105.304L492.475 100.005L495.307 106.527Z" fill="white"/>
<path d="M541.722 418.636L528.191 426.924L524.415 420.674L537.474 414.152L541.722 418.636Z" fill="white"/>
<path fill-rule="evenodd" clip-rule="evenodd" d="M523.785 64.2697L521.583 18.4792H590.97L587.98 64.1338L523.785 64.2697Z" fill="url(#paint84_linear)"/>
<path fill-rule="evenodd" clip-rule="evenodd" d="M521.583 18.4792L519.537 21.1968L521.583 64.2697H523.785L521.583 18.4792Z" fill="url(#paint85_linear)"/>
<path d="M544.554 27.7189L533.698 26.6318L535.271 58.0193L544.554 57.204V53.943L539.205 54.0789L538.575 29.8929L544.554 30.0287V27.7189Z" fill="white"/>
<path d="M566.897 27.7189L577.753 26.6318L576.337 58.0193L566.897 57.204V53.943L572.246 54.0789L572.876 29.8929L566.897 30.0287V27.7189Z" fill="white"/>
<path fill-rule="evenodd" clip-rule="evenodd" d="M45.786 164.411L47.202 133.159H0L1.88808 164.275L45.786 164.411Z" fill="url(#paint86_linear)"/>
<path fill-rule="evenodd" clip-rule="evenodd" d="M47.2021 133.159L48.6181 135.061L47.2021 164.411H45.786L47.2021 133.159Z" fill="url(#paint87_linear)"/>
<path d="M29.1081 139.545C29.1081 139.545 34.3003 139.409 35.2443 139.681C36.1884 140.089 34.9297 147.29 34.9297 147.29L36.9751 148.921L35.087 150.551C35.087 150.551 35.2443 157.889 33.9856 158.568C32.7269 159.247 28.636 158.568 28.636 158.568V156.666C28.636 156.666 32.0975 156.802 32.5696 156.394C33.1989 155.986 33.0416 149.6 33.0416 149.6L33.9856 148.785L33.0416 147.834C33.0416 147.834 33.1989 143.214 33.0416 141.991C33.0416 141.176 28.9507 141.04 28.9507 141.04V139.545H29.1081Z" fill="white"/>
<path d="M17.15 139.545C17.15 139.545 11.9578 139.409 11.0137 139.681C10.0697 140.089 11.3284 147.29 11.3284 147.29L9.28296 148.921L11.171 150.551C11.171 150.551 11.0137 157.889 12.2724 158.568C13.5311 159.247 17.622 158.568 17.622 158.568V156.666C17.622 156.666 14.1605 156.802 13.6885 156.394C13.2165 155.986 13.2165 149.6 13.2165 149.6L12.2724 148.785L13.2165 147.834C13.2165 147.834 13.0591 143.214 13.2165 141.991C13.2165 141.176 17.3073 141.04 17.3073 141.04V139.545H17.15Z" fill="white"/>
<path d="M444.643 68.3459L433 42.1217L463.052 47.5568L444.643 68.3459ZM434.259 43.0728L444.801 66.9872L461.636 48.1003L434.259 43.0728Z" fill="#FFC20A"/>
<path d="M537.09 427.237L526.951 439.182L527.586 439.583L537.725 427.639L537.09 427.237Z" fill="#FFC20A"/>
<path d="M432.056 329.093L421.2 317.272L421.829 316.864L432.685 328.549L432.056 329.093Z" fill="#FFC20A"/>
<path d="M94.8761 411.57L73.0059 397.846L73.4779 397.303L95.3481 411.026L94.8761 411.57Z" fill="#FFC20A"/>
<path d="M91.9823 395.053L75.6777 413.536L76.3036 413.948L92.6081 395.465L91.9823 395.053Z" fill="#FFC20A"/>
<path d="M45.8533 204.075L45.4874 204.677L59.5545 211.06L59.9204 210.458L45.8533 204.075Z" fill="#FFC20A"/>
<path d="M602.298 46.7415L601.669 46.1979L617.875 30.1646L618.504 30.5722L602.298 46.7415Z" fill="#FFC20A"/>
<path d="M285.217 85.655L284.513 85.9576L291.801 98.6092L292.505 98.3066L285.217 85.655Z" fill="#FFC20A"/>
<path d="M187.729 298.688L169.024 312.2L169.529 312.721L188.234 299.209L187.729 298.688Z" fill="#FFC20A"/>
</g>
<defs>
<linearGradient id="paint0_linear" x1="161.798" y1="281.103" x2="124.75" y2="189.284" gradientUnits="userSpaceOnUse">
<stop stop-color="#DBCCFF"/>
<stop offset="1" stop-color="#D1BBFF"/>
</linearGradient>
<linearGradient id="paint1_linear" x1="163.642" y1="284.524" x2="126.594" y2="192.705" gradientUnits="userSpaceOnUse">
<stop stop-color="#B5A6E7"/>
<stop offset="1" stop-color="#7760BF"/>
</linearGradient>
<linearGradient id="paint2_linear" x1="151.854" y1="262.736" x2="136.238" y2="224.033" gradientUnits="userSpaceOnUse">
<stop stop-color="#B5A6E7"/>
<stop offset="1" stop-color="#7760BF"/>
</linearGradient>
<linearGradient id="paint3_linear" x1="126.198" y1="228.985" x2="137.64" y2="222.795" gradientUnits="userSpaceOnUse">
<stop stop-color="#8B8BE0"/>
<stop offset="1" stop-color="#A177B7"/>
</linearGradient>
<linearGradient id="paint4_linear" x1="133.585" y1="228.97" x2="130.902" y2="222.32" gradientUnits="userSpaceOnUse">
<stop stop-color="white"/>
<stop offset="1" stop-color="#A177B7"/>
</linearGradient>
<linearGradient id="paint5_linear" x1="160.315" y1="263.917" x2="143.1" y2="221.25" gradientUnits="userSpaceOnUse">
<stop/>
<stop offset="1" stop-color="white"/>
</linearGradient>
<linearGradient id="paint6_linear" x1="338.281" y1="493.232" x2="338.281" y2="372.016" gradientUnits="userSpaceOnUse">
<stop stop-color="#6456C0"/>
<stop offset="1" stop-color="#5F2C95"/>
</linearGradient>
<linearGradient id="paint7_linear" x1="292.853" y1="450.677" x2="329.667" y2="450.677" gradientUnits="userSpaceOnUse">
<stop stop-color="#9E8CEF"/>
<stop offset="1" stop-color="#CAAFEE"/>
</linearGradient>
<linearGradient id="paint8_linear" x1="378.879" y1="450.679" x2="342.063" y2="450.679" gradientUnits="userSpaceOnUse">
<stop stop-color="#9E8CEF"/>
<stop offset="1" stop-color="#CAAFEE"/>
</linearGradient>
<linearGradient id="paint9_linear" x1="333.341" y1="493.232" x2="333.341" y2="372.016" gradientUnits="userSpaceOnUse">
<stop stop-color="#CCCCFF"/>
<stop offset="1" stop-color="#755CBB"/>
</linearGradient>
<linearGradient id="paint10_linear" x1="349.681" y1="432.624" x2="349.681" y2="399.563" gradientUnits="userSpaceOnUse">
<stop stop-color="#CCCCFF"/>
<stop offset="1" stop-color="#755CBB"/>
</linearGradient>
<linearGradient id="paint11_linear" x1="305.34" y1="420.467" x2="305.34" y2="388.076" gradientUnits="userSpaceOnUse">
<stop stop-color="#CCCCFF"/>
<stop offset="1" stop-color="#755CBB"/>
</linearGradient>
<linearGradient id="paint12_linear" x1="343.382" y1="189.48" x2="343.382" y2="141.094" gradientUnits="userSpaceOnUse">
<stop stop-color="#D5CDF8"/>
<stop offset="1" stop-color="#F3EDFB"/>
</linearGradient>
<linearGradient id="paint13_linear" x1="314.539" y1="165.239" x2="372.226" y2="165.239" gradientUnits="userSpaceOnUse">
<stop stop-color="#CCCCFF"/>
<stop offset="1" stop-color="#755CBB"/>
</linearGradient>
<linearGradient id="paint14_linear" x1="326.887" y1="382.804" x2="326.887" y2="138.988" gradientUnits="userSpaceOnUse">
<stop stop-color="#9E8CEF"/>
<stop offset="1" stop-color="#CAAFEE"/>
</linearGradient>
<linearGradient id="paint15_linear" x1="209.719" y1="230.874" x2="278.476" y2="230.874" gradientUnits="userSpaceOnUse">
<stop stop-color="#CCCCFF"/>
<stop offset="1" stop-color="#755CBB"/>
</linearGradient>
<linearGradient id="paint16_linear" x1="207.592" y1="299.159" x2="207.592" y2="185.145" gradientUnits="userSpaceOnUse">
<stop stop-color="#9E8CEF"/>
<stop offset="1" stop-color="#DAC7F3"/>
</linearGradient>
<linearGradient id="paint17_linear" x1="434.621" y1="266.299" x2="523.212" y2="266.299" gradientUnits="userSpaceOnUse">
<stop stop-color="#A999F1"/>
<stop offset="1" stop-color="#DAC7F3"/>
</linearGradient>
<linearGradient id="paint18_linear" x1="178.775" y1="169.6" x2="178.775" y2="139.538" gradientUnits="userSpaceOnUse">
<stop offset="0.0159875" stop-color="#FFC2A9"/>
<stop offset="1" stop-color="#FF9595"/>
</linearGradient>
<linearGradient id="paint19_linear" x1="200.695" y1="168.887" x2="200.695" y2="119.125" gradientUnits="userSpaceOnUse">
<stop stop-color="#FFEADB"/>
<stop offset="0.9944" stop-color="#C27CB6"/>
</linearGradient>
<linearGradient id="paint20_linear" x1="198.826" y1="202.741" x2="198.826" y2="126.025" gradientUnits="userSpaceOnUse">
<stop offset="0.0159875" stop-color="#FFC2A9"/>
<stop offset="1" stop-color="#FF9595"/>
</linearGradient>
<linearGradient id="paint21_linear" x1="182.939" y1="190.77" x2="210.87" y2="190.77" gradientUnits="userSpaceOnUse">
<stop offset="0.0159875" stop-color="#D1A1D6"/>
<stop offset="0.9944" stop-color="#BD89C4"/>
</linearGradient>
<linearGradient id="paint22_linear" x1="525.038" y1="249.469" x2="525.038" y2="146.881" gradientUnits="userSpaceOnUse">
<stop offset="0.0159875" stop-color="#FFC2A9"/>
<stop offset="1" stop-color="#FF9595"/>
</linearGradient>
<linearGradient id="paint23_linear" x1="539.072" y1="216.601" x2="539.072" y2="165.634" gradientUnits="userSpaceOnUse">
<stop stop-color="#FFEADB"/>
<stop offset="0.9944" stop-color="#C27CB6"/>
</linearGradient>
<linearGradient id="paint24_linear" x1="550.715" y1="199.009" x2="550.715" y2="176.161" gradientUnits="userSpaceOnUse">
<stop stop-color="#FFB0B0"/>
<stop offset="0.984" stop-color="#FFC2A9"/>
</linearGradient>
<linearGradient id="paint25_linear" x1="566.061" y1="202.527" x2="566.061" y2="189.998" gradientUnits="userSpaceOnUse">
<stop stop-color="#FFB0B0"/>
<stop offset="0.984" stop-color="#FFC2A9"/>
</linearGradient>
<linearGradient id="paint26_linear" x1="504.008" y1="227.5" x2="530.992" y2="227.5" gradientUnits="userSpaceOnUse">
<stop offset="0.0159875" stop-color="#D1A1D6"/>
<stop offset="0.9944" stop-color="#BD89C4"/>
</linearGradient>
<linearGradient id="paint27_linear" x1="466.455" y1="307.925" x2="466.455" y2="193.094" gradientUnits="userSpaceOnUse">
<stop stop-color="#CCCCFF"/>
<stop offset="1" stop-color="#755CBB"/>
</linearGradient>
<linearGradient id="paint28_linear" x1="173.688" y1="284.79" x2="396.088" y2="284.79" gradientUnits="userSpaceOnUse">
<stop stop-color="#CCCCFF"/>
<stop offset="1" stop-color="#755CBB"/>
</linearGradient>
<linearGradient id="paint29_linear" x1="369.758" y1="252.651" x2="412.268" y2="252.651" gradientUnits="userSpaceOnUse">
<stop stop-color="#CCEDFF"/>
<stop offset="1" stop-color="#755CBB"/>
</linearGradient>
<linearGradient id="paint30_linear" x1="331.201" y1="317.079" x2="393.675" y2="317.079" gradientUnits="userSpaceOnUse">
<stop stop-color="#CCEDFF"/>
<stop offset="1" stop-color="#755CBB"/>
</linearGradient>
<linearGradient id="paint31_linear" x1="334.094" y1="341.474" x2="400.84" y2="341.474" gradientUnits="userSpaceOnUse">
<stop stop-color="#CCEDFF"/>
<stop offset="1" stop-color="#755CBB"/>
</linearGradient>
<linearGradient id="paint32_linear" x1="276.651" y1="281.074" x2="276.651" y2="216.383" gradientUnits="userSpaceOnUse">
<stop stop-color="#CCEDFF"/>
<stop offset="1" stop-color="#755CBB"/>
</linearGradient>
<linearGradient id="paint33_linear" x1="282.682" y1="286.512" x2="282.682" y2="237.474" gradientUnits="userSpaceOnUse">
<stop stop-color="#CCEDFF"/>
<stop offset="1" stop-color="#755CBB"/>
</linearGradient>
<linearGradient id="paint34_linear" x1="192.938" y1="223.826" x2="192.938" y2="186.776" gradientUnits="userSpaceOnUse">
<stop stop-color="#CCEDFF"/>
<stop offset="1" stop-color="#755CBB"/>
</linearGradient>
<linearGradient id="paint35_linear" x1="227.656" y1="191.199" x2="244.946" y2="191.199" gradientUnits="userSpaceOnUse">
<stop stop-color="#CCEDFF"/>
<stop offset="1" stop-color="#755CBB"/>
</linearGradient>
<linearGradient id="paint36_linear" x1="415.61" y1="281.074" x2="415.61" y2="212.402" gradientUnits="userSpaceOnUse">
<stop stop-color="#CCCCFF"/>
<stop offset="1" stop-color="#755CBB"/>
</linearGradient>
<linearGradient id="paint37_linear" x1="505.011" y1="266.304" x2="505.011" y2="230.419" gradientUnits="userSpaceOnUse">
<stop stop-color="#CCCCFF"/>
<stop offset="1" stop-color="#755CBB"/>
</linearGradient>
<linearGradient id="paint38_linear" x1="457.885" y1="264.701" x2="457.885" y2="237.267" gradientUnits="userSpaceOnUse">
<stop stop-color="#CCCCFF"/>
<stop offset="1" stop-color="#755CBB"/>
</linearGradient>
<linearGradient id="paint39_linear" x1="183.958" y1="226.191" x2="183.958" y2="216.003" gradientUnits="userSpaceOnUse">
<stop stop-color="#CCEDFF"/>
<stop offset="1" stop-color="#755CBB"/>
</linearGradient>
<linearGradient id="paint40_linear" x1="215.471" y1="257.251" x2="215.471" y2="201.573" gradientUnits="userSpaceOnUse">
<stop stop-color="#CCCCFF"/>
<stop offset="1" stop-color="#755CBB"/>
</linearGradient>
<linearGradient id="paint41_linear" x1="381.344" y1="218.06" x2="381.344" y2="176.161" gradientUnits="userSpaceOnUse">
<stop stop-color="#CCEDFF"/>
<stop offset="1" stop-color="#755CBB"/>
</linearGradient>
<linearGradient id="paint42_linear" x1="317.783" y1="212.396" x2="317.783" y2="154.568" gradientUnits="userSpaceOnUse">
<stop stop-color="#CCEDFF"/>
<stop offset="1" stop-color="#755CBB"/>
</linearGradient>
<linearGradient id="paint43_linear" x1="304.815" y1="167.237" x2="377.601" y2="167.237" gradientUnits="userSpaceOnUse">
<stop stop-color="#CCCCFF"/>
<stop offset="1" stop-color="#755CBB"/>
</linearGradient>
<linearGradient id="paint44_linear" x1="491.926" y1="262.213" x2="491.926" y2="225.837" gradientUnits="userSpaceOnUse">
<stop stop-color="#CCCCFF"/>
<stop offset="1" stop-color="#755CBB"/>
</linearGradient>
<linearGradient id="paint45_linear" x1="432.386" y1="303.249" x2="432.386" y2="193.094" gradientUnits="userSpaceOnUse">
<stop stop-color="#CCCCFF"/>
<stop offset="1" stop-color="#755CBB"/>
</linearGradient>
<linearGradient id="paint46_linear" x1="295.249" y1="354.991" x2="295.249" y2="323.413" gradientUnits="userSpaceOnUse">
<stop stop-color="#CCCCFF"/>
<stop offset="1" stop-color="#755CBB"/>
</linearGradient>
<linearGradient id="paint47_linear" x1="366.28" y1="346.317" x2="366.28" y2="330.982" gradientUnits="userSpaceOnUse">
<stop stop-color="#CCCCFF"/>
<stop offset="1" stop-color="#755CBB"/>
</linearGradient>
<linearGradient id="paint48_linear" x1="365.497" y1="149.209" x2="365.497" y2="44.3024" gradientUnits="userSpaceOnUse">
<stop offset="0.0159875" stop-color="#FFC2A9"/>
<stop offset="1" stop-color="#FF9595"/>
</linearGradient>
<linearGradient id="paint49_linear" x1="320.211" y1="106.878" x2="320.211" y2="75.9486" gradientUnits="userSpaceOnUse">
<stop offset="0.0159875" stop-color="#FFC2A9"/>
<stop offset="1" stop-color="#FF9595"/>
</linearGradient>
<linearGradient id="paint50_linear" x1="382.381" y1="118.573" x2="383.512" y2="111.759" gradientUnits="userSpaceOnUse">
<stop stop-color="#E1616A"/>
<stop offset="1" stop-color="#FF8883"/>
</linearGradient>
<linearGradient id="paint51_linear" x1="368.826" y1="113.407" x2="368.826" y2="45.8261" gradientUnits="userSpaceOnUse">
<stop stop-color="#FFEADB"/>
<stop offset="0.9944" stop-color="#C27CB6"/>
</linearGradient>
<linearGradient id="paint52_linear" x1="365.013" y1="85.7308" x2="365.013" y2="72.3435" gradientUnits="userSpaceOnUse">
<stop stop-color="#CF6074"/>
<stop offset="1" stop-color="#F37270"/>
</linearGradient>
<linearGradient id="paint53_linear" x1="395.933" y1="89.9787" x2="395.933" y2="78.3292" gradientUnits="userSpaceOnUse">
<stop stop-color="#CF6074"/>
<stop offset="1" stop-color="#FF817F"/>
</linearGradient>
<linearGradient id="paint54_linear" x1="397.202" y1="96.7576" x2="397.202" y2="70.5426" gradientUnits="userSpaceOnUse">
<stop stop-color="#FFEADB"/>
<stop offset="0.9944" stop-color="#C27CB6"/>
</linearGradient>
<linearGradient id="paint55_linear" x1="367.127" y1="150.528" x2="367.127" y2="23.3027" gradientUnits="userSpaceOnUse">
<stop stop-color="#2E33A0"/>
<stop offset="1" stop-color="#0665A5"/>
</linearGradient>
<linearGradient id="paint56_linear" x1="405.822" y1="70.4112" x2="405.822" y2="41.0618" gradientUnits="userSpaceOnUse">
<stop stop-color="#FFEADB"/>
<stop offset="0.9944" stop-color="#8860C7"/>
</linearGradient>
<linearGradient id="paint57_linear" x1="359.509" y1="150.528" x2="359.509" y2="23.3027" gradientUnits="userSpaceOnUse">
<stop stop-color="#CCC2DB"/>
<stop offset="0.9944" stop-color="#8860C7"/>
</linearGradient>
<linearGradient id="paint58_linear" x1="369.388" y1="150.498" x2="369.388" y2="145.032" gradientUnits="userSpaceOnUse">
<stop stop-color="#776D7E"/>
<stop offset="1" stop-color="#9D68C2"/>
</linearGradient>
<linearGradient id="paint59_linear" x1="387.958" y1="32.4336" x2="387.958" y2="28.3727" gradientUnits="userSpaceOnUse">
<stop stop-color="#1F77D1"/>
<stop offset="1" stop-color="#0686C9"/>
</linearGradient>
<linearGradient id="paint60_linear" x1="358.002" y1="45.8039" x2="358.002" y2="33.797" gradientUnits="userSpaceOnUse">
<stop stop-color="#1F77D1"/>
<stop offset="1" stop-color="#0686C9"/>
</linearGradient>
<linearGradient id="paint61_linear" x1="408.384" y1="51.8912" x2="408.384" y2="41.0618" gradientUnits="userSpaceOnUse">
<stop stop-color="#1F77D1"/>
<stop offset="1" stop-color="#0686C9"/>
</linearGradient>
<linearGradient id="paint62_linear" x1="325.427" y1="99.5462" x2="312.11" y2="80.6533" gradientUnits="userSpaceOnUse">
<stop stop-color="#FFEADB"/>
<stop offset="0.9944" stop-color="#B060F4"/>
</linearGradient>
<linearGradient id="paint63_linear" x1="327.107" y1="97.3599" x2="320.554" y2="88.0641" gradientUnits="userSpaceOnUse">
<stop stop-color="#FFEADB"/>
<stop offset="0.9944" stop-color="#B060F4"/>
</linearGradient>
<linearGradient id="paint64_linear" x1="357.073" y1="46.8778" x2="384.24" y2="46.8778" gradientUnits="userSpaceOnUse">
<stop stop-color="#1F77D1"/>
<stop offset="1" stop-color="#0686C9"/>
</linearGradient>
<linearGradient id="paint65_linear" x1="395.392" y1="117.042" x2="403.632" y2="117.042" gradientUnits="userSpaceOnUse">
<stop stop-color="#1F77D1"/>
<stop offset="1" stop-color="#0686C9"/>
</linearGradient>
<linearGradient id="paint66_linear" x1="385.218" y1="111.751" x2="394.106" y2="111.751" gradientUnits="userSpaceOnUse">
<stop stop-color="#1F77D1"/>
<stop offset="1" stop-color="#0686C9"/>
</linearGradient>
<linearGradient id="paint67_linear" x1="450.773" y1="130.368" x2="729.357" y2="130.368" gradientUnits="userSpaceOnUse">
<stop stop-color="#9D68C2"/>
<stop offset="1" stop-color="#AEC2FF"/>
</linearGradient>
<linearGradient id="paint68_linear" x1="507.444" y1="221.234" x2="507.444" y2="148.673" gradientUnits="userSpaceOnUse">
<stop stop-color="#CCEDFF"/>
<stop offset="1" stop-color="#9D68C2"/>
</linearGradient>
<linearGradient id="paint69_linear" x1="650.716" y1="185.857" x2="650.716" y2="153.895" gradientUnits="userSpaceOnUse">
<stop stop-color="#CCEDFF"/>
<stop offset="1" stop-color="#9D68C2"/>
</linearGradient>
<linearGradient id="paint70_linear" x1="694.384" y1="185.857" x2="694.384" y2="153.895" gradientUnits="userSpaceOnUse">
<stop stop-color="#CCEDFF"/>
<stop offset="1" stop-color="#9D68C2"/>
</linearGradient>
<linearGradient id="paint71_linear" x1="606.319" y1="185.857" x2="606.319" y2="153.895" gradientUnits="userSpaceOnUse">
<stop stop-color="#CCEDFF"/>
<stop offset="1" stop-color="#9D68C2"/>
</linearGradient>
<linearGradient id="paint72_linear" x1="208.268" y1="107.325" x2="208.268" y2="73.8697" gradientUnits="userSpaceOnUse">
<stop stop-color="#D93DE3"/>
<stop offset="1" stop-color="#FF6DBA"/>
</linearGradient>
<linearGradient id="paint73_linear" x1="231.948" y1="107.325" x2="231.948" y2="73.8699" gradientUnits="userSpaceOnUse">
<stop stop-color="#F45161"/>
<stop offset="1" stop-color="#C670E7"/>
</linearGradient>
<linearGradient id="paint74_linear" x1="201.546" y1="459.765" x2="217.232" y2="315.146" gradientUnits="userSpaceOnUse">
<stop stop-color="#70C2F7"/>
<stop offset="1" stop-color="#3F90F0"/>
</linearGradient>
<linearGradient id="paint75_linear" x1="29.8249" y1="245.989" x2="29.8249" y2="230.875" gradientUnits="userSpaceOnUse">
<stop stop-color="#459FFF"/>
<stop offset="1" stop-color="#A96DFF"/>
</linearGradient>
<linearGradient id="paint76_linear" x1="257.886" y1="143.656" x2="257.886" y2="135.069" gradientUnits="userSpaceOnUse">
<stop stop-color="#B31A8F"/>
<stop offset="1" stop-color="#FE117E"/>
</linearGradient>
<linearGradient id="paint77_linear" x1="590.907" y1="333.119" x2="590.907" y2="324.532" gradientUnits="userSpaceOnUse">
<stop stop-color="#8642A0"/>
<stop offset="1" stop-color="#6456C0"/>
</linearGradient>
<linearGradient id="paint78_linear" x1="74.0103" y1="375.471" x2="74.0103" y2="367.795" gradientUnits="userSpaceOnUse">
<stop stop-color="#8642A0"/>
<stop offset="1" stop-color="#6456C0"/>
</linearGradient>
<linearGradient id="paint79_linear" x1="111.307" y1="333.946" x2="111.307" y2="270.542" gradientUnits="userSpaceOnUse">
<stop stop-color="#D906E3"/>
<stop offset="1" stop-color="#FF6DF9"/>
</linearGradient>
<linearGradient id="paint80_linear" x1="618.243" y1="423.692" x2="618.243" y2="344.375" gradientUnits="userSpaceOnUse">
<stop stop-color="#3CAFE9"/>
<stop offset="1" stop-color="#D069CB"/>
</linearGradient>
<linearGradient id="paint81_linear" x1="499.071" y1="379.339" x2="506.5" y2="321.253" gradientUnits="userSpaceOnUse">
<stop stop-color="#1852A0"/>
<stop offset="1" stop-color="#067ED3"/>
</linearGradient>
<linearGradient id="paint82_linear" x1="491.68" y1="377.848" x2="505.259" y2="319.451" gradientUnits="userSpaceOnUse">
<stop stop-color="#1852A0"/>
<stop offset="1" stop-color="#067ED3"/>
</linearGradient>
<linearGradient id="paint83_linear" x1="483.275" y1="375.48" x2="491.202" y2="316.972" gradientUnits="userSpaceOnUse">
<stop stop-color="#188DC1"/>
<stop offset="1" stop-color="#06BFE7"/>
</linearGradient>
<linearGradient id="paint84_linear" x1="546.051" y1="69.4296" x2="559.58" y2="11.2483" gradientUnits="userSpaceOnUse">
<stop stop-color="#6DBFF7"/>
<stop offset="1" stop-color="#3F90F0"/>
</linearGradient>
<linearGradient id="paint85_linear" x1="515.405" y1="62.8329" x2="525.494" y2="19.4461" gradientUnits="userSpaceOnUse">
<stop stop-color="#1852A0"/>
<stop offset="1" stop-color="#067ED3"/>
</linearGradient>
<linearGradient id="paint86_linear" x1="30.5736" y1="167.904" x2="21.3505" y2="128.24" gradientUnits="userSpaceOnUse">
<stop stop-color="#6FC1F7"/>
<stop offset="1" stop-color="#2F7EEA"/>
</linearGradient>
<linearGradient id="paint87_linear" x1="51.4658" y1="163.407" x2="44.5879" y2="133.829" gradientUnits="userSpaceOnUse">
<stop stop-color="#1852A0"/>
<stop offset="1" stop-color="#067ED3"/>
</linearGradient>
<clipPath id="clip0">
<rect width="729" height="493" fill="white"/>
</clipPath>
</defs>
</svg>
