<svg width="32" height="32" viewBox="0 0 32 32" fill="none" xmlns="http://www.w3.org/2000/svg">
<path d="M23.9719 13.1416C23.979 13.2991 23.9824 13.4573 23.9824 13.6162C23.9824 18.469 20.2886 24.0649 13.5334 24.0652C11.4595 24.0652 9.52954 23.4573 7.9043 22.4155C8.19165 22.4495 8.48413 22.4663 8.78027 22.4663C10.501 22.4663 12.0845 21.8794 13.3416 20.8943C11.7339 20.8645 10.3784 19.8027 9.91064 18.3435C10.1345 18.3865 10.3647 18.4099 10.6008 18.4099C10.936 18.4099 11.2607 18.3647 11.5693 18.2805C9.88892 17.9441 8.62305 16.459 8.62305 14.6807C8.62305 14.6641 8.62305 14.6492 8.62354 14.6338C9.11841 14.9089 9.68433 15.0745 10.2869 15.093C9.30078 14.4351 8.65259 13.3103 8.65259 12.0361C8.65259 11.3633 8.83447 10.7329 9.1499 10.1902C10.9609 12.4124 13.6675 13.8738 16.7197 14.0273C16.6567 13.7583 16.6243 13.478 16.6243 13.1899C16.6243 11.1626 18.269 9.51782 20.2971 9.51782C21.3535 9.51782 22.3076 9.96436 22.9778 10.6782C23.8145 10.5132 24.6001 10.2075 25.3098 9.78687C25.0352 10.644 24.4531 11.3633 23.6948 11.8181C24.4377 11.7292 25.1458 11.5322 25.8037 11.2397C25.3123 11.9763 24.689 12.6233 23.9719 13.1416Z" fill="white"/>
</svg>
