<svg width="32" height="32" viewBox="0 0 32 32" fill="none" xmlns="http://www.w3.org/2000/svg">
<path fill-rule="evenodd" clip-rule="evenodd" d="M23.8153 9.95531C24.6763 10.167 25.353 10.7884 25.5835 11.5791C26 13.0108 26 15.9999 26 15.9999C26 15.9999 26 18.9889 25.5818 20.4206C25.3513 21.2114 24.6747 21.8327 23.8136 22.0444C22.2545 22.4284 16 22.4284 16 22.4284C16 22.4284 9.74547 22.4284 8.18637 22.0444C7.32532 21.8327 6.64867 21.2114 6.41818 20.4206C6 18.9889 6 15.9999 6 15.9999C6 15.9999 6 13.0108 6.41818 11.5791C6.64867 10.7884 7.32532 10.167 8.18637 9.95531C9.74547 9.57129 16 9.57129 16 9.57129C16 9.57129 22.2545 9.57129 23.8153 9.95531ZM19.5717 15.9998L13.8574 13.1427V18.857L19.5717 15.9998Z" fill="white"/>
</svg>
